<?xml version="1.0" encoding="utf-8"?>
<!-- Generator: Adobe Illustrator 23.0.3, SVG Export Plug-In . SVG Version: 6.00 Build 0)  -->
<svg version="1.1" xmlns="http://www.w3.org/2000/svg" xmlns:xlink="http://www.w3.org/1999/xlink" x="0px" y="0px"
	 viewBox="0 0 600 600" style="enable-background:new 0 0 600 600;" xml:space="preserve">
<style type="text/css">
	.st0{fill:#202124;}
	.st1{fill:#F7F7F7;}
	.st2{fill:none;stroke:#D5E1FA;stroke-miterlimit:10;}
	.st3{fill:#EB506E;}
	.st4{fill:#B1CEFC;}
	.st5{fill:#5185EC;}
	.st6{fill:#FFFFFF;stroke:#202124;stroke-width:0.75;stroke-miterlimit:10;}
	.st7{fill:#D5E1FA;}
	.st8{fill:#F7CD5B;}
	.st9{fill:#040844;}
	.st10{fill:none;}
	.st11{fill:#FFFFFF;}
</style>
<g id="letter">
	<path class="st0" d="M541.3,90.9c1.8,12,3.4,24.7,4.7,38.1c1.7,18.4,2.5,35.7,2.6,51.9c-12.4-3.3-25.4-6.4-39.1-9
		c-54.2-10.5-103.8-12.2-146.2-9.8c43-49.3,81.2-74.6,104.5-87.5c4.5-2.5,36.5-20.3,52.5-10.8c4,2.3,7.9,6.1,7.9,6.1
		C536.1,77.3,539.6,85.9,541.3,90.9z"/>
	<path class="st1" d="M417.5,541.9l-235.7-120c-5.7-38.2-49.3-350.6,65.3-401.8c7.3-3.3,15.5-5.6,24.5-6.6
		c56.3,9.7,100,16.5,126.6,20.6c75.4,11.4,127.1,17.8,140.7,51c1.2,2.8,1.8,5.3,2.1,6.8c-2.1-6.6-7.4-20.2-19.5-24.9
		c0,0-15.1-6-39.1,10C437.2,107.1,421.2,454.3,417.5,541.9z"/>
	<line class="st2" x1="244.7" y1="48.3" x2="439.9" y2="84"/>
	<line class="st2" x1="224.2" y1="73.1" x2="380.6" y2="103.3"/>
	<line class="st2" x1="256.7" y1="113.3" x2="425.5" y2="147.6"/>
	<line class="st2" x1="198.9" y1="158.8" x2="408" y2="204.3"/>
	<line class="st2" x1="198.9" y1="190" x2="291.5" y2="211.8"/>
	<line class="st2" x1="224.2" y1="223.6" x2="402.4" y2="262.9"/>
	<line class="st2" x1="204.9" y1="262.2" x2="386.2" y2="304.6"/>
</g>
<g id="letter_front">
	<polygon class="st3" points="300,162.9 266,464.7 431,538.1 474.5,188.1 	"/>
	<polygon class="st4" points="373.4,200.5 303.2,190.2 304.7,172.2 374.9,182.5 	"/>
	<line class="st5" x1="304.3" y1="208" x2="464.9" y2="230.8"/>
	<line class="st5" x1="302.9" y1="226.6" x2="437.1" y2="245.7"/>
	<line class="st5" x1="303.1" y1="241" x2="433" y2="259.4"/>
	<line class="st5" x1="301.3" y1="269.9" x2="435.4" y2="289"/>
</g>
<g id="envelope">
	<path class="st6" d="M163.7,430.3l2.2-1.3c51.2-11.9,113.3-31,180.5-62.2c55.9-26,102.7-54.5,140.4-80.9
		c-7,98.9-14.1,197.9-21.1,296.8"/>
	<polygon class="st6" points="160.1,228.1 163.7,430.3 465.7,582.8 	"/>
	<polygon class="st5" points="198.5,316.4 165.8,300.4 165.2,265.2 198.5,280.9 	"/>
	<polygon class="st7" points="194.9,310.8 169.3,298.3 168.9,270.8 194.9,283.1 	"/>
	<g>
		<g>
			<path class="st7" d="M389.6,381.8c25.3,6.7,50.7,13.5,76,20.2c1.9,0.5,2.7-2.4,0.8-2.9c-25.3-6.7-50.7-13.5-76-20.2
				C388.6,378.4,387.8,381.3,389.6,381.8L389.6,381.8z"/>
		</g>
	</g>
	<g>
		<g>
			<path class="st7" d="M376.3,391.5c11,2.3,21.9,5.4,32.5,9.3c1.8,0.7,2.6-2.2,0.8-2.9c-10.6-3.8-21.5-6.9-32.5-9.3
				C375.2,388.2,374.4,391.1,376.3,391.5L376.3,391.5z"/>
		</g>
	</g>
	<g>
		<g>
			<path class="st7" d="M384,407.6c20.5,6.4,40.9,12.8,61.4,19.1c1.8,0.6,2.6-2.3,0.8-2.9c-20.5-6.4-40.9-12.8-61.4-19.1
				C383,404.1,382.2,407,384,407.6L384,407.6z"/>
		</g>
	</g>
</g>
<g id="character">
	<g id="hand_right">
		<path class="st8" d="M134,420.8c-4.8,0.8-8.1,1.4-10.5,1.8c-3.7,0.6-6.9,1.2-10.9,3c-0.4,0.2-0.7,0.3-1,0.5
			c-2.3,1.2-5.4,3.4-8.3,7.4c-2.7,0.8-4.8,1.8-6.2,2.5c-3.3,1.7-10.3,5.2-14.1,12.6c-0.8,1.6-1.3,3-1.5,3.8c0.5,1.4,1.5,3.4,3.4,4.7
			c3.4,2.3,7.7,1,11.1,0c11.3-3.4,17-5.1,22.8-8.2c5.3-2.8,12.2-6.9,19.7-12.8c0.2-1.7,0.3-4.5-0.6-7.7
			C137.1,424.7,135.2,422.1,134,420.8z"/>
		<path class="st9" d="M258.4,315.6c-2.6-10-19-13.6-24.3-14.6c-0.8,1.1-2.1,2.8-3.5,5c-4.6,7.1-7.2,12.9-8.5,15.8
			c-3.7,8.4-11.3,25-21,47c-5.9,4.4-11.8,8.8-17.7,13.3c-3.1,2.4-9.9,7.5-17.8,13.7c-8.2,6.4-18.9,14.8-31.6,25
			c1.1,1.3,2.8,3.6,3.9,6.9c1.1,3.6,1,6.7,0.8,8.4c10.2-4.4,18.7-8.4,24.9-11.4c26.3-12.9,44.7-24.8,50.6-28.8
			c6.5-4.3,11.7-8,15.3-10.6c2.3-3.2,5.1-7.3,8.1-12.3c2.8-4.7,6.5-11.5,10.2-20c3.6-8.5,5.4-14.8,8-23.5
			C258.9,318.5,258.7,316.8,258.4,315.6z"/>
		<g>
			<path class="st10" d="M234.1,301.1c-2.7,3.6-5.1,7.4-7.3,11.3c-2.4,4.4-4.5,8.9-6.6,13.5c-6.3,13.9-12.7,27.9-19,41.8"/>
		</g>
		<g>
			<path class="st10" d="M134.5,420.2c21.5-16.8,42.9-33.7,64.4-50.5"/>
		</g>
		<g>
			<path class="st10" d="M134,420.8c3.7,4.1,5.4,9.9,4.7,15.3"/>
		</g>
		<g>
			<path class="st10" d="M139.2,435.8c30-12.6,58.7-28.3,85.4-46.8"/>
		</g>
		<g>
			<path class="st10" d="M229.5,385.4c12.2-16.7,21.1-35.7,26.2-55.7"/>
		</g>
		<g>
			<g>
				<path class="st0" d="M127.7,421.3c-9.7,2-21.2,3.6-25.5,13.8c-0.1,0.2,0,0.5,0.2,0.6c4.8,1.7,8.4-2.4,13.1-2.9
					c0.5,0,0.5-0.8,0-0.8c-2.5,0.3-4.3,1.3-6.6,2.3c-1.8,0.8-5.1,1.8-5.1-0.9c0-1.7,3.1-3.9,4.4-4.8c5.7-4.3,13-5.2,19.7-6.6
					C128.4,421.9,128.2,421.2,127.7,421.3L127.7,421.3z"/>
			</g>
		</g>
		<g>
			<path class="st10" d="M100.7,434c-4,2.2-8.1,4.3-11.5,7.3c-3.5,2.9-6.4,6.7-7.6,11.1"/>
		</g>
		<g>
			<g>
				<path class="st0" d="M84.2,454.9c4.2-5.1,9.4-9,15.5-11.5c0.4-0.2,0.2-0.9-0.2-0.7c-6.2,2.5-11.6,6.5-15.8,11.7
					C83.3,454.8,83.9,455.3,84.2,454.9L84.2,454.9z"/>
			</g>
		</g>
		<g>
			<g>
				<path class="st0" d="M87.1,456.2c2.6-1.7,5.1-3.6,7.8-5.2c2.3-1.4,5-1.7,7.4-2.8c0.4-0.2,0.1-0.8-0.4-0.6
					c-2.4,1.1-5.1,1.4-7.4,2.8c-2.7,1.6-5.2,3.5-7.8,5.2C86.3,455.9,86.6,456.5,87.1,456.2L87.1,456.2z"/>
			</g>
		</g>
		<g>
			<g>
				<path class="st0" d="M90.9,457.2c3.4-1.4,6.9-2.6,10.5-3.6c0.5-0.1,0.3-0.8-0.2-0.7c-3.6,1-7.2,2.2-10.7,3.7
					C90.1,456.8,90.4,457.4,90.9,457.2L90.9,457.2z"/>
			</g>
		</g>
	</g>
	<g id="plane">
		<path class="st11" d="M59.9,475c26.1-9.9,52.3-19.9,78.4-29.8c0.6,5.4,1.2,10.9,1.8,16.3C113.4,466,86.7,470.5,59.9,475z"/>
		<path class="st3" d="M37.8,478.7c28.9-13.1,57.7-26.3,86.6-39.4c4.7,2,9.5,4,14.2,6c-21.6,8.3-43.2,16.6-64.8,24.9
			c-2.9,1.1-5.8,2.2-8.7,3.3c6-1,12-2.2,18.2-3.5c23.4-5,44.8-11.3,64.3-18.3c3.7,1.3,7.6,2.8,11.7,4.7c7,3.2,13,6.8,18,10.2
			c-8.9,1.7-18,3.2-27.2,4.7c-2.1,0.3-4.1,0.7-6.2,1c-0.3,4.5-0.6,9-0.9,13.6c-28.5-2.4-56.9-4.8-85.4-7.2
			C51,478.5,44.4,478.6,37.8,478.7z"/>
		<g>
			<path class="st10" d="M37.6,478.6c28.9-13.1,57.8-26.2,86.8-39.3"/>
		</g>
		<g>
			<path class="st10" d="M124.5,439.3c4.6,2.3,9.3,4.3,14.1,6"/>
		</g>
		<g>
			<g>
				<path class="st0" d="M138.3,445.2c-0.2,3.1-0.3,6.3-0.5,9.4c0,0.5,0.7,0.5,0.8,0c0.2-3.1,0.3-6.3,0.5-9.4
					C139.1,444.7,138.3,444.7,138.3,445.2L138.3,445.2z"/>
			</g>
		</g>
		<g>
			<g>
				<path class="st11" d="M37.8,479c39-1.5,78.6-1.3,117.1-8.3c0.5-0.1,0.3-0.8-0.2-0.7c-38.4,7.1-78,6.8-116.9,8.3
					C37.3,478.3,37.3,479,37.8,479L37.8,479z"/>
			</g>
		</g>
		<g>
			<path class="st10" d="M65,473.5c24.3-9.6,48.7-18.8,73.2-27.7"/>
		</g>
		<g>
			<path class="st10" d="M65.4,473.6c28.2-5.4,56-12.8,83.2-22.2"/>
		</g>
		<g>
			<g>
				<path class="st0" d="M149.9,452.5c7,3,13.8,6.4,20.5,10.1c0.4,0.2,0.8-0.4,0.4-0.6c-6.6-3.7-13.5-7.1-20.5-10.1
					C149.9,451.7,149.5,452.3,149.9,452.5L149.9,452.5z"/>
			</g>
		</g>
		<g>
			<path class="st10" d="M58,478.2c28.1,4.2,56.5,6.7,84.9,7.5"/>
		</g>
		<g>
			<g>
				<path class="st0" d="M144.1,473c-0.3,3.9-0.7,7.7-1,11.6c0,0.5,0.7,0.5,0.8,0c0.3-3.9,0.7-7.7,1-11.6
					C144.9,472.6,144.2,472.6,144.1,473L144.1,473z"/>
			</g>
		</g>
	</g>
	<g id="torso">
		<path class="st9" d="M234.3,297.7c-1.4,2.7-1.5,5.3-1.7,9.3c-0.3,9.5,3.2,16.9,5.3,20.7c1.3,1.8,3.3,4.4,6.1,7.4
			c4.6,5,9.2,8.8,14,12.2c19,13.6,42.6,23.1,52.5,26.8c4.6,1.7,8.4,3,10.6,3.8c9.5-2.5,21-6.4,33.3-12.5c9.4-4.7,17.4-9.7,23.9-14.4
			c-3.9-6.8-9.8-15.4-18.1-24.2c-13.8-14.6-27.4-22.2-37.6-27.6c-10.7-5.7-17.9-9.5-28.8-11.5c-8.2-1.5-14.2-1.2-22.2-0.9
			C254.5,287.8,239.2,288.4,234.3,297.7z"/>
		<g>
			<path class="st10" d="M234.3,297.7c19-11.7,43-14.9,64.4-8.6c7.4,2.2,13.3,4.9,20.3,8.4c8.9,4.4,27,13.6,43.7,32.3
				c4.4,4.9,10.1,12,15.6,21.5"/>
		</g>
		<g>
			<g>
				<path class="st11" d="M237.6,328c6.6,8.7,14.6,16.2,23.8,22.2c0.4,0.3,0.8-0.4,0.4-0.6c-9.1-6-16.9-13.3-23.5-22
					C238,327.2,237.3,327.6,237.6,328L237.6,328z"/>
			</g>
		</g>
	</g>
	<g id="hand_left">
		<path class="st8" d="M170.2,446.2c-1.7-0.2-3.9-0.2-6.6,0c-1,0.1-4.7,0.5-9.3,2.2c-2.5,0.9-4.3,1.6-6.2,3.2
			c-1.3,1.1-3.5,3-3.1,4.5c0.6,2.4,6.8,1.6,7.5,4c0.3,1-0.8,2.2-2.9,4.6c-2.8,3.2-4.6,5.2-7.7,6.6c-1.7,0.8-3.3,1-6.4,1.5
			c-5.6,0.8-7.7,0.1-9.5,1.9c-1.4,1.4-1.5,3.3-1.5,3.8c0,3.1,2.7,5.3,4.5,6.7c5.3,4.3,11.4,4.6,12.9,4.7c6.2,0.2,10.8-2.1,12.9-3.2
			c7.5-3.9,11.3-10.1,14.6-15.4c2.9-4.8,4.7-9.1,5.8-12.3C173.5,454.7,171.8,450.4,170.2,446.2z"/>
		<path class="st9" d="M291.8,296.4c-0.6,0.4-2.3,1.6-3.9,3.4c-2,2.3-2.8,4.4-4.2,7.6c-2.8,6.6-2.5,5.1-4.3,9.5
			c-4.3,10.8-7.5,23-7.5,23c-5.6,21.5-11,48.3-11.8,52.1c-12.4,6.4-22.9,12.2-30.9,16.8c-12.5,7.1-26.7,15.3-44.1,27.3
			c-6,4.1-10.9,7.7-14.1,10.1c0,1.8,0.2,4.4,1.3,7.3c0.8,2.3,1.9,4.1,2.8,5.4c4.4-0.5,10.6-1.4,17.9-2.7c14.7-2.7,26.8-6.4,51-13.7
			c0,0,8.5-2.6,22.8-8.6c3.2-1.4,5.9-2.5,9.1-4.8c1.3-0.9,5.7-4.2,11.2-11.4c3.4-4.4,5.2-8.1,7.6-12.9c7.2-14.6,10.9-21.8,11.8-24.1
			c9.2-20.8,16-42.3,18.6-51c0.9-1.9,3.5-7.7,1.7-14.4c-1.2-4.7-3.9-7.5-6-9.7C312.7,297.3,298.8,292,291.8,296.4z"/>
		<g>
			<g>
				<path class="st11" d="M287.6,299.6c-11.3,16.7-13.9,36.7-19.7,55.6c-0.1,0.5,0.6,0.7,0.7,0.2c5.8-18.8,8.4-38.8,19.7-55.4
					C288.5,299.6,287.9,299.2,287.6,299.6L287.6,299.6z"/>
			</g>
		</g>
		<g>
			<path class="st10" d="M258.8,392.7c-30.3,15.8-59.6,33.5-87.7,53"/>
		</g>
		<g>
			<path class="st10" d="M171,446.2c0.1,4.3,1.3,8.6,3.4,12.4"/>
		</g>
		<g>
			<path class="st10" d="M175.1,459c34-4.2,67.3-13.9,98.2-28.6"/>
		</g>
		<g>
			<path class="st10" d="M159.9,447c-2.8,0.6-5.7,1.1-8.3,2.3s-5,3.1-6.2,5.7"/>
		</g>
		<g>
			<path class="st10" d="M152.5,460.1c-2.4,4-4.9,8.2-9,10.4c-5.3,2.9-11.9,1.8-17.5,4.1"/>
		</g>
		<g>
			<g>
				<path class="st0" d="M124.9,477.7c1.9,1.3,4.3,1.2,6.6,1.2c3,0,6.1-0.3,9.1-0.7c0.5-0.1,0.3-0.8-0.2-0.7c-4,0.6-11.4,2-15-0.3
					C124.9,476.8,124.5,477.4,124.9,477.7L124.9,477.7z"/>
			</g>
		</g>
		<g>
			<g>
				<path class="st0" d="M125.3,480.4c4.9,2.4,10.2,2.9,15.5,3.2c0.5,0,0.5-0.7,0-0.8c-5.2-0.3-10.4-0.7-15.1-3.1
					C125.3,479.6,124.9,480.2,125.3,480.4L125.3,480.4z"/>
			</g>
		</g>
		<g>
			<g>
				<path class="st0" d="M127.1,483.7c2.8,2.3,6.1,3.7,9.7,4c0.5,0,0.5-0.7,0-0.8c-3.4-0.3-6.6-1.6-9.2-3.8
					C127.3,482.9,126.7,483.4,127.1,483.7L127.1,483.7z"/>
			</g>
		</g>
		<g>
			<path class="st10" d="M175.1,458.8c-3.6,8.5-7.5,17.3-14.2,23.6"/>
		</g>
		<g>
			<g>
				<path class="st11" d="M325.5,327.8c-3.8,12.3-7.9,24.5-12.4,36.6c-0.2,0.5,0.6,0.6,0.7,0.2c4.5-12.1,8.7-24.3,12.4-36.6
					C326.4,327.5,325.7,327.4,325.5,327.8L325.5,327.8z"/>
			</g>
		</g>
	</g>
	<g id="head">
		<path class="st8" d="M257.3,310.5c0.3,0.3,1,0.8,1,0.8c0.2,0.2,1.7,1.2,3.2,1.3c1.6,0.2,2.9-0.6,4.6-1.6c2.5-1.6,3.8-3.5,4.3-4.2
			c0.4-0.6,1.1-1.7,1.5-3.2c0.7-2.6,0.8-7.3-1.6-8.7c-2.8-1.6-7.4,2.5-8.2,3.2C257.5,302.2,255.6,308.7,257.3,310.5z"/>
		<g>
			<g>
				<path class="st0" d="M260,309.7c0.8,0.2,1.6,0.3,2.5,0.3c0.5,0,0.5-0.7,0-0.8c-0.8,0-1.5-0.1-2.3-0.3
					C259.7,308.9,259.5,309.6,260,309.7L260,309.7z"/>
			</g>
		</g>
		<g>
			<path class="st10" d="M258,310.8c1,1.6,3.1,2.1,5,1.7s3.4-1.6,4.8-2.8c0.7-0.6,1.4-1.3,2-2c0.7-0.9,1.2-2,1.5-3.1"/>
		</g>
		<path class="st8" d="M234.9,294.8c0.1,1,0.6,2.2,1.1,3.5c0.6,1.5,1.7,4.2,4,6.7c1.2,1.3,3.5,3.9,7.4,5.2c4.5,1.6,8.4,0.6,9.8,0.2
			c3.3-0.9,5.5-2.4,6.7-3.4c1.4-1.1,3.9-2.9,5.6-6.2c0.2-0.4,1.2-2.4,1.7-5.2c0.3-1.8,0.9-5.2-0.6-8.9c-0.4-0.9-1.6-3.7-4.3-5.7
			c-5.2-3.9-12.1-2.1-14.9-1.4C242.7,282,234.1,289.3,234.9,294.8z"/>
		<g>
			<path class="st10" d="M234.8,294.3c1,4.2,2.9,8.2,5.8,11.3s7,5.4,11.3,5.6c4.3,0.2,8.6-1.6,12.2-4.1c1-0.7,2-1.5,2.9-2.4
				c2.1-2.1,3.5-4.9,4.1-7.8"/>
		</g>
		<g>
			<path class="st10" d="M235.3,295.6c-0.2-2.4,0.9-4.8,2.8-6.3c1.9-1.5,4.5-1.9,6.8-1.2c4,1.3,6.4,6,10.6,6.9
				c3.4,0.8,6.8-1.2,9.5-3.3c1.2-0.9,2.4-2,3.9-2.2c1.5-0.3,3.3,0.6,3.5,2.1"/>
		</g>
		<g>
			<g>
				<path class="st0" d="M241.6,298.3c0.6,2.3,1.3,4.6,2.4,6.7c0.7,1.4,1.6,2.6,3.3,2.6c0.5,0,0.5-0.7,0-0.8c-2.1-0.1-3-2.8-3.7-4.5
					c-0.6-1.4-1-2.8-1.3-4.3C242.2,297.6,241.5,297.8,241.6,298.3L241.6,298.3z"/>
			</g>
		</g>
		<g>
			<g>
				<path class="st0" d="M244.9,295.6c0.9-1.4,2.7-0.8,3.8-0.1c0.4,0.2,0.8-0.4,0.4-0.6c-1.6-0.9-3.7-1.4-4.9,0.4
					C244,295.7,244.6,296,244.9,295.6L244.9,295.6z"/>
			</g>
		</g>
		<g>
			<g>
				<path class="st0" d="M237.7,297.8c0.5-0.9,1.5-1.4,2.5-0.7c0.4,0.3,0.8-0.4,0.4-0.6c-1.2-0.9-2.8-0.2-3.5,1
					C236.8,297.8,237.4,298.2,237.7,297.8L237.7,297.8z"/>
			</g>
		</g>
		
			<ellipse transform="matrix(0.9343 -0.3566 0.3566 0.9343 -90.7169 108.4513)" class="st0" cx="248.8" cy="300.2" rx="1.1" ry="1.2"/>
		
			<ellipse transform="matrix(0.9343 -0.3566 0.3566 0.9343 -91.9109 105.7788)" class="st0" cx="240.9" cy="302.1" rx="1.1" ry="1.2"/>
		<path class="st5" d="M292.1,270.2c-0.7,12.3-16.3,21.6-29.7,20.8c-15-1-28.2-14.8-27-25.3c0.5-4,3.3-9.3,7.5-10.5
			c4.7-1.3,8,3.5,11.9,1.9c4.4-1.8,2.8-8.5,6.4-10.8C268.1,241.9,293.1,254.1,292.1,270.2z"/>
		<path class="st5" d="M234.9,296.1c0-0.8,0.2-2.9,1.7-4.9c0.6-0.7,2.3-2.8,5.1-3.1c2.7-0.3,4.8,1,6.3,2c2.6,1.7,2.6,3,5.2,4.2
			c0.9,0.4,2.4,1.2,4.3,1.1c0.6,0,1.7-0.2,7.5-3.5c1.9-1.1,2.9-1.6,4.1-1.6c1.6,0,2.8,0.8,3.6,1.5c0.3-1.5,0.6-3.7,0.2-6.4
			c-1.3-8-8-12.2-8.7-12.7c-6.9-4.2-14.1-2.1-16.7-1.4c-4.4,1.2-7.3,3.4-9.7,5.3c-7,5.4-14.4,14.9-12.1,18.4
			C226.4,296.3,228.6,297.3,234.9,296.1z"/>
		<path class="st3" d="M246.5,272.2c0.3-0.3,5.4-5.2,12.3-3.5c5.7,1.4,8.1,6.4,8.4,7.1c-1.2-1.2-4.2-3.8-8.8-4.8
			C252.7,269.6,248,271.5,246.5,272.2z"/>
	</g>
</g>
</svg>
