<?xml version="1.0" encoding="utf-8"?>
<!-- Generator: Adobe Illustrator 23.0.3, SVG Export Plug-In . SVG Version: 6.00 Build 0)  -->
<svg version="1.1" xmlns="http://www.w3.org/2000/svg" xmlns:xlink="http://www.w3.org/1999/xlink" x="0px" y="0px"
	 viewBox="0 0 600 600" style="enable-background:new 0 0 600 600;" xml:space="preserve">
<style type="text/css">
	.st0{fill:#CCCCCC;}
	.st1{fill:#FFFFFF;}
	.st2{fill:#FFFFFF;stroke:#202124;stroke-width:0.75;stroke-miterlimit:10;}
	.st3{fill:#F7F7F7;}
	.st4{fill:#E5E5E5;}
	.st5{fill:#F0F1F2;}
	.st6{fill:#B1CEFC;}
	.st7{fill:#709AEE;}
	.st8{fill:#202124;}
	.st9{fill:#E0E0E0;}
	.st10{fill:none;stroke:#202124;stroke-width:0.75;stroke-miterlimit:10;}
	.st11{fill:#F2F2F2;}
	.st12{fill:#F7CD5B;}
	.st13{fill:#040844;}
	.st14{fill:none;}
	.st15{fill:#5492ED;}
	.st16{fill:#EB506E;}
</style>
<g id="background">
	<g id="chair">
		<path class="st0" d="M445.2,565.5l-82.1-43.7c-20.9-11.1-32.2-37-27.1-62.4l36.4-182.4c6.1-30.5,33.3-49.4,60.3-41.8l78.7,21.9
			c25.4,7.1,41.5,35,36.9,63.9l-32.9,204.3C509.4,561.2,474.7,581.2,445.2,565.5z"/>
		<g>
			<g>
				<path class="st1" d="M528.7,272.9c-8.4,15.5-11,32.9-12.6,50.3c-1.9,20.5-3.5,41.1-5.5,61.6c-4.3,42.5-9.6,85-15.9,127.3
					c-0.1,0.5,0.7,0.7,0.7,0.2c6-40.4,11.2-80.9,15.4-121.6c2.1-20.1,3.9-40.3,5.5-60.5c1.6-19.5,3.7-39.3,13.1-56.8
					C529.6,272.8,529,272.4,528.7,272.9L528.7,272.9z"/>
			</g>
		</g>
	</g>
	<g id="table">
		<path class="st2" d="M139,356.1c3.4,3.6,483.4,236.8,483.4,236.8l-27.8,72.8L-58.1,668L4.4,398.3L139,356.1z"/>
	</g>
	<g id="papers">
		<polygon class="st3" points="132.7,417.4 47.2,447.2 20,412.6 99.7,389.1 		"/>
		<polygon class="st4" points="149.4,415.2 60.8,447.1 32.7,410 115.2,384.9 		"/>
		<polygon class="st5" points="145.1,406.3 59.6,436 32.4,401.4 112.1,377.9 		"/>
		<g>
			<g>
				<path class="st6" d="M53.2,416.3c1.9,0,1.9-3,0-3C51.3,413.3,51.3,416.3,53.2,416.3L53.2,416.3z"/>
			</g>
		</g>
		<g>
			<g>
				<path class="st6" d="M56,401.7c5.4,7.4,11,14.5,16.8,21.5c0.3,0.4,0.8-0.2,0.5-0.5c-5.8-6.9-11.4-14-16.7-21.4
					C56.4,401,55.7,401.3,56,401.7L56,401.7z"/>
			</g>
		</g>
		<g>
			<g>
				<path class="st6" d="M70.4,408.6c2.8,3.1,5.6,6.4,8.3,9.6c0.3,0.4,0.8-0.2,0.5-0.5c-2.7-3.3-5.5-6.5-8.3-9.6
					C70.6,407.7,70.1,408.2,70.4,408.6L70.4,408.6z"/>
			</g>
		</g>
		<g>
			<g>
				<path class="st6" d="M72.7,397.1c5,6.7,9.8,13.5,14.4,20.5c0.3,0.4,0.9,0,0.6-0.4c-4.6-7-9.4-13.8-14.4-20.5
					C73,396.4,72.4,396.7,72.7,397.1L72.7,397.1z"/>
			</g>
		</g>
		<g>
			<g>
				<path class="st6" d="M83.9,394.2c4.9,5.6,9.4,11.6,13.5,17.8c0.3,0.4,0.9,0,0.6-0.4c-4.1-6.3-8.7-12.3-13.6-18
					C84.2,393.3,83.6,393.8,83.9,394.2L83.9,394.2z"/>
			</g>
		</g>
		<g>
			<g>
				<path class="st6" d="M99.1,389.3c6,6.3,11.6,12.8,16.9,19.7c0.3,0.4,0.9,0,0.6-0.4c-5.3-7-10.9-13.6-17-19.9
					C99.3,388.4,98.8,389,99.1,389.3L99.1,389.3z"/>
			</g>
		</g>
	</g>
	<g id="book">
		<polygon class="st7" points="207.9,546 97.6,573.5 76,537.6 183,510.9 		"/>
		<polygon class="st1" points="115.9,558.1 104.8,559.7 93.2,541.6 104.3,540 		"/>
		<g>
			<g>
				<path class="st8" d="M76,539c0,1.6,0,3.2,0,4.7c0,0.5,0.8,0.5,0.8,0c0-1.6,0-3.2,0-4.7C76.7,538.5,76,538.5,76,539L76,539z"/>
			</g>
		</g>
		<g>
			<g>
				<path class="st8" d="M76.8,545.7c5.7,10.1,11.5,20.2,17.2,30.3c0.2,0.4,0.9,0,0.6-0.4c-5.7-10.1-11.5-20.2-17.2-30.3
					C77.2,544.9,76.5,545.2,76.8,545.7L76.8,545.7z"/>
			</g>
		</g>
		<g>
			<g>
				<path class="st8" d="M80.9,550.1c5.3,8.6,10.4,17.3,15.1,26.1c0.2,0.4,0.9,0,0.6-0.4c-4.8-8.9-9.8-17.6-15.1-26.1
					C81.2,549.3,80.6,549.7,80.9,550.1L80.9,550.1z"/>
			</g>
		</g>
		<g>
			<g>
				<path class="st8" d="M100.5,575.1c13.9-3.1,27.8-6.6,41.5-10.4c0.5-0.1,0.3-0.9-0.2-0.7c-13.8,3.9-27.6,7.3-41.5,10.4
					C99.9,574.5,100.1,575.2,100.5,575.1L100.5,575.1z"/>
			</g>
		</g>
		<g>
			<g>
				<path class="st8" d="M137,568c23.1-5.2,46-11.1,68.7-17.7c0.5-0.1,0.3-0.9-0.2-0.7c-22.7,6.6-45.6,12.5-68.7,17.7
					C136.3,567.3,136.5,568.1,137,568L137,568z"/>
			</g>
		</g>
		<g>
			<g>
				<path class="st8" d="M102.1,577.3c10-2.6,20.1-4.9,30.3-6.8c0.5-0.1,0.3-0.8-0.2-0.7c-10.2,1.9-20.3,4.2-30.3,6.8
					C101.4,576.7,101.6,577.4,102.1,577.3L102.1,577.3z"/>
			</g>
		</g>
		<g>
			<g>
				<path class="st8" d="M155.4,561.4c13.2-3,26.3-6.3,39.3-9.8c0.5-0.1,0.3-0.8-0.2-0.7c-13.1,3.5-26.2,6.7-39.3,9.8
					C154.7,560.7,154.9,561.5,155.4,561.4L155.4,561.4z"/>
			</g>
		</g>
		<g>
			<g>
				<path class="st8" d="M205.4,546.9c-0.2,1.8-0.4,3.6-0.6,5.4c-0.1,0.5,0.7,0.5,0.8,0c0.2-1.8,0.4-3.6,0.6-5.4
					C206.2,546.4,205.5,546.4,205.4,546.9L205.4,546.9z"/>
			</g>
		</g>
	</g>
	<g id="coffee">
		<path class="st8" d="M129.6,489.8c-1.5,0.8-4.9,2.1-9.3,1.9c-4-0.2-7-1.7-8.5-2.5c-2.8-13.6-5.5-27.3-8.3-40.9h33.6L129.6,489.8z"
			/>
		<ellipse class="st2" cx="120.4" cy="447.5" rx="16.8" ry="12.1"/>
		<ellipse class="st2" cx="120.6" cy="447.2" rx="10.8" ry="7.6"/>
	</g>
	<g id="mouse">
		
			<ellipse transform="matrix(0.7993 -0.6009 0.6009 0.7993 -231.4457 327.5347)" class="st2" cx="374.6" cy="510.3" rx="18.4" ry="11"/>
		<g>
			<g>
				<path class="st8" d="M360.9,521.8c1.6-4.5,4.3-8.4,8.1-11.4c0.4-0.3-0.2-0.8-0.5-0.5c-3.8,3.1-6.6,7.1-8.3,11.8
					C360,522.1,360.7,522.3,360.9,521.8L360.9,521.8z"/>
			</g>
		</g>
		<g>
			<g>
				<path class="st8" d="M362.7,508.4c6.6-0.3,12.3,3.5,14.3,9.9c0.1,0.5,0.9,0.3,0.7-0.2c-2.1-6.6-8-10.8-15-10.4
					C362.3,507.7,362.3,508.5,362.7,508.4L362.7,508.4z"/>
			</g>
		</g>
	</g>
	<g id="laptop">
		<polygon class="st9" points="303.4,534.6 199.3,460 263.5,418.1 365.6,479.1 		"/>
		<polygon class="st2" points="298.1,526.8 212.2,465.1 262.9,430.1 347.8,483.3 		"/>
		<line class="st10" x1="256.9" y1="434.3" x2="342.9" y2="487.6"/>
		<line class="st10" x1="250.5" y1="438.7" x2="337.4" y2="492.4"/>
		<line class="st10" x1="244" y1="443.2" x2="332.2" y2="496.9"/>
		<line class="st10" x1="238.2" y1="447.1" x2="326" y2="501.5"/>
		<line class="st10" x1="231.8" y1="451.6" x2="320.5" y2="507.1"/>
		<line class="st10" x1="224.9" y1="456.3" x2="315" y2="512"/>
		<line class="st10" x1="218.2" y1="460.9" x2="308.2" y2="517.9"/>
		<line class="st10" x1="341.5" y1="479.4" x2="289.6" y2="520.7"/>
		<line class="st10" x1="332.2" y1="474.3" x2="282.5" y2="515.6"/>
		<line class="st10" x1="270" y1="434.6" x2="221.6" y2="470.7"/>
		<line class="st10" x1="278.1" y1="438.8" x2="231" y2="475.8"/>
		<line class="st10" x1="286.2" y1="444.7" x2="238.2" y2="483.8"/>
		<line class="st10" x1="324.9" y1="469.7" x2="272.5" y2="509.1"/>
		<line class="st10" x1="290.6" y1="455.2" x2="246.1" y2="489.4"/>
		<line class="st10" x1="301.7" y1="462" x2="254.5" y2="495.5"/>
		<line class="st10" x1="310.7" y1="467.6" x2="264.8" y2="502.8"/>
		<polygon class="st11" points="139,384.7 264.8,467.9 302.5,534.4 201.3,461.4 		"/>
	</g>
</g>
<g id="character">
	<g id="hand_right">
		<path class="st12" d="M273.6,402.6c-0.8,0.5-1.9,1.4-3.2,2.5c-3.4,3-4.2,5-7.5,9.1c-2.2,2.7-4.1,5-7.1,7.2c-1.9,1.4-4.2,3.1-7.6,4
			c-1.4,0.4-6.2,1.7-11.7-0.4c-1.6-0.6-6.7-2.6-8.7-7.5c-0.4-1.1-0.6-2.1-0.7-2.8c0.9-1.9,2.5-4.6,4.9-7.4
			c1.7-1.9,5.3-5.6,18.1-11.5c3.7-1.7,8.7-3.9,14.8-6c0.3,0.1,6.5,1.2,8.5,6.5C274.4,399.1,273.9,401.5,273.6,402.6z"/>
		<path class="st13" d="M381,293.2c-1.8,0.8-4.4,2.1-7.1,4.2c-3.9,3.1-6.3,6.5-8,9.3c-5.9,9.9-8.1,19.6-8.1,19.6
			c-2.2,9.5-7.3,25.2-18.8,52.8c-12.5,3.3-26.9,6.3-42.8,8.4c-11.8,1.5-22.8,2.2-32.9,2.4c1.1,0.4,2.5,1.2,4.1,2.3
			c1.2,0.9,3.7,2.8,5.2,6c2.1,4.5,0.9,9,0.4,10.3c3.6,0.7,8.9,1.7,15.2,2.9c25.9,4.8,15.2,2.4,31.9,5.5c0,0,9.5,1.7,20.8,2.1
			c2.3,0.1,5.7,0.1,9.8-1.3c0.8-0.3,4.2-1.5,8.1-4.6c4.4-3.5,6.8-7.3,7.6-8.7c10.7-16.9,16.2-17.8,21.7-31.7
			c2.2-5.6,3.3-10.2,4.7-16.9c1.7-7.5,2.9-15.5,3.1-20.1C396.8,318.3,387,301.7,381,293.2z"/>
		<g>
			<path class="st14" d="M377,295.3c-9.9,5.3-14.3,16.8-18,27.3c-6.3,18.1-12.6,36.2-18.9,54.2"/>
		</g>
		<g>
			<path class="st14" d="M265.2,389.1c23.5-0.3,46.9-3.2,69.7-8.7"/>
		</g>
		<g>
			<path class="st14" d="M264.8,391.1c6.4,1.9,10.4,9.6,8.2,15.9"/>
		</g>
		<g>
			<path class="st14" d="M276.3,408.8c18.4,4.3,37,7.5,55.8,9.6c7.3,0.8,15.1,1.4,21.6-2c5.2-2.6,9-7.4,12.5-12.1
				c7.7-10.3,14.9-20.8,21.7-31.7"/>
		</g>
		<g>
			<g>
				<path class="st8" d="M271.2,404.1c-7.1,4.6-9.3,13.4-16.8,17.6c-0.4,0.2,0,0.9,0.4,0.6c7.5-4.2,9.7-13.1,16.8-17.6
					C271.9,404.5,271.6,403.9,271.2,404.1L271.2,404.1z"/>
			</g>
		</g>
		<g>
			<path class="st14" d="M259.5,392.5c-6.5,2.1-13.1,4.3-19,7.8c-5.9,3.5-11.1,8.6-13.7,14.9"/>
		</g>
		<g>
			<g>
				<path class="st8" d="M229.6,418.3c3.3-5.7,7.9-10.3,13.6-13.6c0.4-0.2,0-0.9-0.4-0.6c-5.8,3.3-10.6,8-13.9,13.9
					C228.7,418.4,229.4,418.7,229.6,418.3L229.6,418.3z"/>
			</g>
		</g>
		<g>
			<g>
				<path class="st8" d="M233.6,419.7c3.2-6,9.2-9.3,15-12.4c0.4-0.2,0-0.9-0.4-0.6c-5.9,3.2-11.9,6.6-15.2,12.7
					C232.8,419.8,233.4,420.1,233.6,419.7L233.6,419.7z"/>
			</g>
		</g>
		<g>
			<g>
				<path class="st8" d="M238.5,421.6c3.4-4.9,8.1-8.6,13.8-10.6c0.5-0.2,0.3-0.9-0.2-0.7c-5.8,2.1-10.7,5.8-14.2,10.9
					C237.6,421.6,238.3,422,238.5,421.6L238.5,421.6z"/>
			</g>
		</g>
	</g>
	<g id="torso">
		<path class="st13" d="M380,294.7c-4.4,3.6-5,9.5-5.6,15.5c-1.4,15.1-2.1,22.6-1.6,29.7c0.8,12.6-0.8,15.1-3.7,43.5
			c-1.8,17.6-3.9,44.1-5.5,82.8c37.8,18.2,75.5,36.4,113.3,54.6c0.4-3.3,1-8.2,1.9-14.2c1.2-7.6,2.3-12.5,2.8-15.7
			c1.7-11.6,2.5-21.2,3.2-29.7c3.6-46.7,3.9-38.5,4.8-56.7c1-19.6,1.4-45.6-0.2-76.6c-6.3-6.4-16.1-15.1-30-22.5
			c-2.9-1.5-15.7-8.2-33.9-12c-9.4-2-17.4-1.9-33.3-1.8C388.1,291.6,383.6,291.7,380,294.7z"/>
		<g>
			<path class="st14" d="M382.8,292.7c38.4-6.6,79.6,7,106.6,35.1"/>
		</g>
		<g>
			<g>
				<path class="st1" d="M374.7,325.7c-5.4,45.3-9.1,90.8-11.1,136.4c0,0.5,0.7,0.5,0.8,0c2-45.6,5.7-91.1,11.1-136.4
					C375.5,325.2,374.8,325.2,374.7,325.7L374.7,325.7z"/>
			</g>
		</g>
		<g>
			<path class="st14" d="M489.1,349.5c3.9,56.7-4.1,113.4-12,169.7"/>
		</g>
		<g>
			<g>
				<path class="st8" d="M467.3,517.2c0.5,0,0.5-0.8,0-0.8C466.8,516.4,466.8,517.2,467.3,517.2L467.3,517.2z"/>
			</g>
		</g>
	</g>
	<g id="hand_left">
		<path class="st12" d="M353.8,468.2c-0.2,0.5-0.7,1.3-1.4,2.1c-1.5,1.7-3.4,2.2-4.4,2.4c-3.5,0.9-6.6-0.2-7.7-0.6
			c-4.5-1.7-4.5-4-7.4-4.2c-0.6,0-1.5,0-7.3,3.8c-4.9,3.1-5.2,3.7-6.7,3.9c-4.4,0.5-8-3.5-8.2-3.8c-3.1-3.6-2.6-8-2.5-8.7
			c1.1-1.6,2.8-3.9,5.3-6.1c2.2-2,5.1-4.6,9.7-6c4.3-1.2,8-0.8,10-0.4c4.2,0.8,5.2,2.4,9.8,3.3c3.2,0.7,5.9,0.6,7.8,0.4
			c0.9,1,2.7,3.2,3.4,6.6C354.8,464.2,354.1,466.9,353.8,468.2z"/>
		<path class="st13" d="M489.3,327.8c-2.3,1.8-5.6,4.8-8.2,9.5c-1.9,3.4-2.4,5.9-4.2,11.6c-0.3,0.8-1.9,5.3-5.1,14.1
			c0,0-3.9,10.6-8.1,21.4c-6.6,17.1-14.3,34.5-18.3,43.7c-3.9,1.4-9.7,3.5-16.9,5.9c-7.9,2.6-17.8,5.6-43.6,12.1
			c-8.8,2.2-20.4,5.1-34.2,8.3c1,1.2,2.6,3.4,3.4,6.6c1.2,4.9-0.4,9-1,10.3c3.3-0.1,8.1-0.2,14.1-0.4c27.9-0.9,41.9-1.3,55.5-2.7
			c33.2-3.3,28-6.8,46-8.4c1.7-0.2,6.2-0.5,10.3-3.5c4.5-3.3,6.5-8,8.7-15.4c3.4-11.1,5.1-20,6-24.6c2.7-14.8,4.1-22.2,4.9-28.4
			c1.3-10.6,2.1-17.1,1.7-26.1c-0.6-12-2.7-18.2-3.5-20.4C494.4,335.3,491.5,330.8,489.3,327.8z"/>
		<g>
			<path class="st14" d="M350.6,454.3c3.4,3.6,4.6,9.1,3.2,13.9"/>
		</g>
		<g>
			<g>
				<path class="st1" d="M355.3,471.2c19.1,0.2,38.3-0.4,57.4-1.9c17.7-1.3,35.7-2.8,52.7-8.3c0.5-0.1,0.3-0.9-0.2-0.7
					c-17.5,5.7-36.2,7.1-54.5,8.4c-18.5,1.3-37,1.9-55.5,1.7C354.8,470.5,354.8,471.2,355.3,471.2L355.3,471.2z"/>
			</g>
		</g>
		<g>
			<path class="st14" d="M494.6,336.3c7.2,15.9,6.1,34.2,3.8,51.5c-2.6,19-6.5,37.8-11.7,56.2c-0.8,2.8-1.6,5.6-3.3,8
				c-2.8,4-7.6,6.1-12.1,8"/>
		</g>
		<g>
			<path class="st14" d="M352.2,453.9c27.3-6.2,54.3-13.3,81.1-21.4"/>
		</g>
		<g>
			<g>
				<path class="st1" d="M478.2,344.2c-9.1,25.6-18.9,51-29.3,76.1c-0.2,0.4,0.5,0.6,0.7,0.2c10.4-25.1,20.1-50.5,29.3-76.1
					C479.1,343.9,478.3,343.7,478.2,344.2L478.2,344.2z"/>
			</g>
		</g>
		<g>
			<g>
				<path class="st8" d="M351.1,470.1c-3.5,3.8-8.5,2.9-12.7,0.6c-1.6-0.9-3.5-3-5.5-3.2c-3.8-0.3-9.1,4.7-11.9,6.8
					c-0.4,0.3,0,0.9,0.4,0.6c2.5-1.8,6.2-5.2,9.2-5.9c4-1,6.8,2.5,10.2,3.7c3.9,1.4,7.9,1,10.8-2.1
					C352,470.3,351.5,469.8,351.1,470.1L351.1,470.1z"/>
			</g>
		</g>
		<g>
			<path class="st14" d="M342.9,453.9c-3.5-1.6-7.2-2.8-11-3.8c-1.6-0.4-3.2-0.7-4.8-0.5c-1.4,0.2-2.7,0.8-3.9,1.4
				c-5.9,2.8-11.7,6.4-15,12.1"/>
		</g>
		<g>
			<g>
				<path class="st8" d="M309.7,465.7c3-3.9,7-6.7,11.8-8.1c0.5-0.1,0.3-0.9-0.2-0.7c-4.9,1.4-9.1,4.3-12.2,8.4
					C308.7,465.7,309.4,466.1,309.7,465.7L309.7,465.7z"/>
			</g>
		</g>
		<g>
			<g>
				<path class="st8" d="M312.6,467.9c3.1-3.3,6.8-5.7,11.1-7.2c0.5-0.2,0.3-0.9-0.2-0.7c-4.4,1.5-8.2,4-11.4,7.4
					C311.8,467.7,312.3,468.2,312.6,467.9L312.6,467.9z"/>
			</g>
		</g>
		<g>
			<g>
				<path class="st8" d="M315.3,471.3c3.1-3.1,6.7-5.4,10.9-6.7c0.5-0.1,0.3-0.9-0.2-0.7c-4.3,1.3-8.1,3.6-11.2,6.8
					C314.4,471.1,314.9,471.6,315.3,471.3L315.3,471.3z"/>
			</g>
		</g>
	</g>
	<g id="head">
		<path class="st12" d="M425.9,309.1c-0.3,0.1-1.5,0.4-2,1.4c-0.6,1.3,0.3,2.7,0.7,3.3c1.2,1.8,3,2.4,3.6,2.6
			c2.6,0.8,4.9-0.1,6.2-0.6c3.3-1.2,5-3.5,5.7-4.4c0.6-0.8,1.1-1.5,1.5-2.5c0.8-2.5,0.3-5.7-1-6.7
			C438.5,300.3,432.5,303,425.9,309.1z"/>
		<g>
			<g>
				<path class="st8" d="M425.8,309.3c0.7,0.8,1.4,1.7,2.1,2.5c0.3,0.4,0.8-0.2,0.5-0.5c-0.7-0.8-1.4-1.7-2.1-2.5
					C426,308.4,425.4,309,425.8,309.3L425.8,309.3z"/>
			</g>
		</g>
		<g>
			<path class="st14" d="M423.9,310.4c-0.2,1.1,0.1,2.4,0.7,3.3c1.3,1.9,3.6,3,5.9,2.9c2.3,0,4.5-1,6.4-2.4c1.9-1.4,3.4-3.1,4.9-4.9
				"/>
		</g>
		<path class="st12" d="M402.7,280.7c0,0.6,0.1,2.6,0.3,4.3c0.2,2.7,0.4,4.3,0.9,6.3c0.9,3.5,2.2,5.9,2.5,6.4c1.8,3.1,3.8,5,4.6,5.7
			c3.3,2.9,6.6,4.1,7.6,4.5c0.8,0.3,3.6,1.1,7.2,1.1c1.6,0,6.7-0.1,11.8-3.4c4.6-2.9,6.7-6.7,8.5-9.9c2.3-4.2,4.3-7.8,3.8-12.5
			c-0.6-4.9-3.6-8.1-5.3-9.8c-5.6-5.9-12.8-7.1-14.5-7.3C416.2,264.2,402.8,274.8,402.7,280.7z"/>
		<g>
			<path class="st14" d="M403.4,285.8c-0.4,9.2,5.5,18.3,14.1,21.7s19.1,1,25.2-5.9c2-2.3,3.6-5,4.3-8"/>
		</g>
		<g>
			<path class="st14" d="M402.6,281.1c1.6-3.8,6-6.2,10.1-5.3c4.5,0.9,7.5,5,10.2,8.7c2.7,3.7,6.3,7.6,10.9,7.7
				c3.9,0.1,7.2-2.6,9.6-5.7c0.9-1.1,1.7-2.3,2.8-3c1.1-0.8,2.8-1,3.9-0.2"/>
		</g>
		<g>
			<path class="st14" d="M402.7,281.1c0.7-6.9,3.9-13.6,9.1-18.2c5.2-4.6,12.5-6.8,19.3-5.8s13.2,5.5,16.2,11.7c0.9,1.9,1.6,4,2,6.1
				c0.6,2.7,0.9,5.4,0.9,8.1"/>
		</g>
		<g>
			<g>
				<path class="st8" d="M410.1,292.8c0.7,4.2,1.7,8.9,6,10.7c0.4,0.2,0.8-0.5,0.4-0.6c-4.1-1.8-5-6.3-5.6-10.3
					C410.7,292.1,410,292.3,410.1,292.8L410.1,292.8z"/>
			</g>
		</g>
		
			<ellipse transform="matrix(0.9785 -0.2064 0.2064 0.9785 -52.1615 93.0669)" class="st8" cx="419.9" cy="296.5" rx="1.1" ry="1.6"/>
		<g>
			<g>
				<path class="st8" d="M416.6,290.1c0.5-0.6,1.2-1.1,2-1.2c1-0.2,1.8,0.4,2.6,0.9c0.4,0.3,0.8-0.4,0.4-0.6
					c-0.9-0.7-1.8-1.2-2.9-1.1c-1,0.1-1.9,0.7-2.6,1.5C415.8,289.9,416.3,290.5,416.6,290.1L416.6,290.1z"/>
			</g>
		</g>
		<g>
			<g>
				<path class="st8" d="M405.6,291.1c0.7-1,2.1-0.9,2.8,0.1c0.3,0.4,0.9,0,0.6-0.4c-1-1.5-3.1-1.5-4.1-0.1
					C404.6,291.1,405.3,291.5,405.6,291.1L405.6,291.1z"/>
			</g>
		</g>
		<ellipse transform="matrix(0.9785 -0.2064 0.2064 0.9785 -52.6398 90.8322)" class="st8" cx="408.9" cy="297.7" rx="1" ry="1.5"/>
		<path class="st15" d="M464.4,272.4c-5.9,10.7-20.1,14.7-31.1,12.1c-17-3.9-22.1-22.1-23.7-28.2c-0.9-3.4-3.1-11.3,0.5-14.4
			c3.3-2.8,7.9,1.3,15.8,0.5c11.3-1.1,13.5-10.5,20.4-10.3C457,232.4,473.6,255.6,464.4,272.4z"/>
		<path class="st15" d="M402.7,280.7c-10.7-1.2-12.7-4-13.1-5.5c-1.4-5.4,11.3-13.9,21.2-17.4c6.9-2.5,12.3-2.6,14.9-2.5
			c4.2,0.1,9.5,0.3,14.6,3.8c4.2,2.9,6.2,6.5,7,8.1c3.3,6,3.1,11.8,2.9,14.3c-0.6,0-1.7,0-3,0.4c-3.2,1.1-3.7,3.7-7.2,6.2
			c-1.3,0.9-2.8,2-4.9,2.3c-4,0.5-7.4-2.2-8.9-3.4c-5-4-4.1-7.1-8.9-10.5c-1.7-1.2-4.3-3-7.4-2.5
			C405.2,274.6,402.9,280.1,402.7,280.7z"/>
		<path class="st16" d="M422.5,255.5c0.8-0.6,5.6-4.1,11.7-2.7c5.7,1.3,10.2,6.4,11.1,12.8c-1.5-1.9-4.5-5.2-9.4-7.5
			C430.1,255.3,424.9,255.3,422.5,255.5z"/>
	</g>
</g>
<g id="plant">
	<path class="st8" d="M411.5,589.8c-1.3,1-7.3,5.4-15.7,4.4c-6.6-0.8-10.9-4.5-12.3-5.8l-4.4-36.7h37.2
		C414.7,564.4,413.1,577.1,411.5,589.8z"/>
	<ellipse class="st2" cx="397.6" cy="553.6" rx="18.6" ry="15.3"/>
	<g>
		<g>
			<path class="st6" d="M431.9,459.8c-1.7,21.1-18.7,35.2-29,52.2c-8.7,14.4-12.9,32.3-6.5,48.3c0.4,0.9,1.8,0.5,1.4-0.4
				c-7.5-18.9-0.1-38.8,11.2-54.5c10.2-14.1,22.9-27.5,24.4-45.7C433.5,458.8,432,458.8,431.9,459.8L431.9,459.8z"/>
		</g>
	</g>
	<g>
		<g>
			<path class="st6" d="M399.1,522.9c5.1-12.2,3.5-23.6-1.3-35.6c-5.3-13.1-5.1-26.7,3-38.8c0.5-0.8-0.8-1.6-1.3-0.8
				c-6.3,9.4-8.6,21-5.9,32c1.6,6.6,5.3,12.6,6.6,19.3c1.6,7.9,0.5,16-2.5,23.4C397.3,523.4,398.8,523.7,399.1,522.9L399.1,522.9z"
				/>
		</g>
	</g>
	<g>
		<g>
			<path class="st6" d="M385.4,444.7c1.8,3.8-0.6,9.5-0.9,13.6c-0.2,3.4,0,6.9,0.9,10.3c1.5,5.6,4.6,10.4,9.2,14
				c0.8,0.6,1.8-0.5,1.1-1.1c-6.4-5-9.5-12.4-9.7-20.4c-0.1-5.5,3.3-11.9,0.8-17.1C386.3,443.1,385,443.9,385.4,444.7L385.4,444.7z"
				/>
		</g>
	</g>
	<path class="st6" d="M386,453.5c-1.3-4.2-2.3-9.8-1.7-16.3c1.5-15.5,11.3-26.2,15.8-30.6c1.5,4.2,3,10.4,2.1,17.7
		C400.6,439.7,390.2,449.9,386,453.5z"/>
	<path class="st6" d="M399.2,492.8c-0.5-2.7-0.9-6.7-0.3-11.4c0.3-2.5,0.9-6.8,3.3-11.6c2.9-5.7,7-9.3,9.7-11.3
		c0.3,3.7,0.4,10.5-2.3,18.2C406.6,484.8,401.9,490.1,399.2,492.8z"/>
	<path class="st6" d="M395.9,456.1c0.3-3.1,1.3-9.7,5.9-16.3c5-7.2,11.4-10.6,14.3-11.9c-0.4,3.2-1.7,10.1-6.7,17
		C404.6,451.4,398.8,454.7,395.9,456.1z"/>
	<path class="st6" d="M394.4,537.5c-2-2.4-4.8-6.3-6.6-11.8c-3.1-9.8-0.8-18.3,0.3-21.5c1.5,2.2,3,4.9,4.3,8.1
		C396.6,522.7,395.5,532.4,394.4,537.5z"/>
	<path class="st6" d="M405.4,509.4c1.4-1.6,6.1-6.6,14.2-8.2c8.6-1.7,15.2,1.7,17,2.7c-1.6,1.6-7.9,7.8-17.8,8.3
		C412.6,512.6,407.7,510.6,405.4,509.4z"/>
	<path class="st6" d="M420.4,461.3c-1.5,2.7-5.2,10.3-3.2,19.7c0.7,3.4,2,6.1,3.2,8.1c1.3-2.1,3.7-6.8,3.8-13.2
		C424.4,468.7,421.7,463.5,420.4,461.3z"/>
</g>
<g id="product">
	<path class="st7" d="M67.3,215c3.6-7.4,10-17.5,21.3-25c21.9-14.3,52.9-12.4,79.7,4.1c7.4-7,18.1-15.3,32.2-21.9
		c33-15.4,64.1-11.5,77.4-9c-4.5-7.8-20.9-33.8-53.2-44c-30.3-9.5-56,0.7-70.9,6.6C98.6,147.7,74.1,199.1,67.3,215z"/>
	<path class="st11" d="M171.2,325.7l23.4,47c19.8,0.8,39.5,1.5,59.3,2.3c11-15.8,22-31.7,33.1-47.5c-7.9-15.4-15.8-30.8-23.8-46.2
		c-16.7,4.1-33.3,8.1-50,12.2C199.2,304.2,185.2,314.9,171.2,325.7z"/>
	<g>
		<g>
			<path class="st8" d="M170.9,326.4c14.8-2.2,29.6-4.3,44.4-6.1c0.5-0.1,0.5-0.8,0-0.8c-14.9,1.9-29.7,3.9-44.6,6.2
				C170.2,325.8,170.4,326.5,170.9,326.4L170.9,326.4z"/>
		</g>
	</g>
	<g>
		<g>
			<path class="st8" d="M262.5,282c-6.4,7.8-12.8,15.5-19.2,23.3c-0.3,0.4,0.2,0.9,0.5,0.5c6.4-7.8,12.8-15.5,19.2-23.3
				C263.3,282.2,262.8,281.6,262.5,282L262.5,282z"/>
		</g>
	</g>
	<g>
		<g>
			<path class="st8" d="M231.9,325c7.7,16.1,14.8,32.5,21.2,49.2c0.2,0.4,0.9,0.3,0.7-0.2c-6.4-16.7-13.5-33.2-21.3-49.4
				C232.3,324.2,231.7,324.6,231.9,325L231.9,325z"/>
		</g>
	</g>
	<g>
		<g>
			<path class="st8" d="M171.5,326c10.2,8.9,21,17.1,32.3,24.5c0.4,0.3,0.8-0.4,0.4-0.6c-11.3-7.4-22-15.6-32.2-24.4
				C171.7,325.1,171.2,325.7,171.5,326L171.5,326z"/>
		</g>
	</g>
	<g>
		<g>
			<path class="st8" d="M228,316.8c0,0.1,0,0.2,0,0.3c0,0.5,0.8,0.5,0.8,0c0-0.1,0-0.2,0-0.3C228.7,316.4,228,316.4,228,316.8
				L228,316.8z"/>
		</g>
	</g>
	<g>
		<g>
			<path class="st8" d="M206.8,349.5c8-9.4,15.1-19.5,21.2-30.2c0.2-0.4-0.4-0.8-0.6-0.4c-6.1,10.7-13.2,20.7-21.1,30.1
				C206,349.3,206.5,349.9,206.8,349.5L206.8,349.5z"/>
		</g>
	</g>
	<g>
		<g>
			<path class="st8" d="M195.1,370.9c3.4-5.4,6.8-10.8,10.2-16.2c0.3-0.4-0.4-0.8-0.6-0.4c-3.4,5.4-6.8,10.8-10.2,16.2
				C194.2,370.9,194.9,371.3,195.1,370.9L195.1,370.9z"/>
		</g>
	</g>
	<g>
		<g>
			<path class="st8" d="M211.5,353.6c13.3,7,26.6,14,39.9,20.9c0.4,0.2,0.8-0.4,0.4-0.6c-13.3-7-26.6-14-39.9-20.9
				C211.5,352.7,211.1,353.4,211.5,353.6L211.5,353.6z"/>
		</g>
	</g>
	<g>
		<g>
			<path class="st8" d="M232.1,317.9c9.9,1.1,19.8,2.3,29.8,3.4c0.2,0,0.4-0.2,0.4-0.4c1-12.5,1.9-25.1,2.9-37.6
				c0-0.5-0.7-0.5-0.8,0c-0.8,10.9-1.7,21.8-2.5,32.6c-0.3,3.7-1.3,4.4-5,4c-2.6-0.3-5.3-0.6-7.9-0.9c-5.6-0.6-11.2-1.3-16.9-1.9
				C231.6,317.1,231.6,317.9,232.1,317.9L232.1,317.9z"/>
		</g>
	</g>
	<g>
		<g>
			<path class="st8" d="M254.4,373.5c2.3-10.1,4.8-20.1,7.4-30.1c0.7-2.5,1.3-5,2-7.5c1.1-4,0.7-6.2,5.6-7.5
				c4.7-1.3,10.5-1.1,15.4-1.6c0.5,0,0.5-0.8,0-0.8c-5.7,0.6-11.8,0.6-17.4,1.8c-3.3,0.7-3.2,3.9-4,6.9c-3.5,12.8-6.8,25.6-9.7,38.5
				C253.6,373.8,254.3,374,254.4,373.5L254.4,373.5z"/>
		</g>
	</g>
	<line class="st10" x1="66.3" y1="217.8" x2="171.2" y2="325.7"/>
	<line class="st10" x1="226.8" y1="316.7" x2="193" y2="198.7"/>
	<line class="st10" x1="263.2" y1="281.3" x2="277.9" y2="163.1"/>
	<line class="st10" x1="213.2" y1="293.5" x2="168.3" y2="194.1"/>
	<path class="st16" d="M66.3,217.8c2.3-7.1,10.7-29.7,33.2-41.4c28.1-14.7,66.8-6.3,93.5,22.3c0.1-3.2,1-26.2,19.3-39.8
		c18-13.4,45.3-12.3,65.7,4.3c0.5-8.9,2.1-53.2-30.1-85.5C210.5,40.3,147.3,39,104.6,68.5C59.2,100,42,163,66.3,217.8z"/>
</g>
</svg>
