<?xml version="1.0" encoding="utf-8"?>
<!-- Generator: Adobe Illustrator 23.0.3, SVG Export Plug-In . SVG Version: 6.00 Build 0)  -->
<svg version="1.1" xmlns="http://www.w3.org/2000/svg" xmlns:xlink="http://www.w3.org/1999/xlink" x="0px" y="0px"
	 viewBox="0 0 600 600" style="enable-background:new 0 0 600 600;" xml:space="preserve">
<style type="text/css">
	.st0{fill:none;}
	.st1{fill:#709AEE;}
	.st2{fill:#D6D6D6;}
	.st3{fill:#FFFFFF;}
	.st4{fill:#EB506E;}
	.st5{fill:#5185EC;}
	.st6{fill:#BCBCBC;}
	.st7{fill:none;stroke:#202124;stroke-width:0.75;stroke-miterlimit:10;}
	.st8{fill:#CECECE;}
	.st9{fill:#F2F2F2;}
	.st10{fill:#FFFFFF;stroke:#202124;stroke-width:0.75;stroke-miterlimit:10;}
	.st11{fill:#D8D8D8;}
	.st12{fill:#EDEDED;}
	.st13{fill:#202124;}
	.st14{fill:#202124;stroke:#202124;stroke-width:0.75;stroke-miterlimit:10;}
	.st15{fill:#F7CD5B;}
	.st16{fill:#040844;}
</style>
<g id="Layer_20">
	<g>
		<path class="st0" d="M305,220.9c-1.3,4.7-0.3,10.1,3,13.7c3.3,3.6,8.9,5,13.3,2.9"/>
	</g>
</g>
<g id="chair">
	<path class="st1" d="M26.2,186.5"/>
	<path class="st2" d="M294.7,367.1l-84.8-25.7c-2.2-0.7-4.5-0.7-6.7-0.2l-39.1,9.3c-8.1,1.9-15.9-4.3-15.6-12.6l4.1-111.6
		c0.2-6.1-4-11.5-10.1-12.7L37.8,192.5c-8.5-1.7-16.2,5.4-15,13.9L48.2,394c0.1,0.9,0.4,1.8,0.7,2.7c-0.1,0.3-0.1,0.6,0,0.9
		C51.9,415,67,507,69.4,521.8c0.2,1.2,1.2,2,2.4,2h5c1.4,0,2.6-1.3,2.4-2.7L65.7,409.3l68.5,37c3.4,33.8,9.1,92.1,10.2,103.6
		c0.1,1.2,1.1,2.1,2.2,2.2l5,0.3c1.4,0.1,2.6-1.1,2.6-2.5l-5.7-103.2l52.1-19.9c2.5,21.9,4.8,42.7,5.5,48.7c0.1,1,1,1.8,2.1,1.8
		l4.7,0.3c1.4,0.1,2.5-0.9,2.4-2.1l-3.5-53l73.7-28.1c-1.2,33-3.7,96.6-4.2,108.8c0,1.2,0.8,2.2,1.9,2.4l4.9,1
		c1.4,0.3,2.8-0.7,2.9-2.2l9.5-117.4C306.1,380.9,304,369.9,294.7,367.1z"/>
	<g>
		<g>
			<path class="st3" d="M129.5,218.8c-5.6,14-4.6,30-4.9,44.8c-0.4,16.9-0.6,33.8-0.7,50.7c-0.1,34.1,0.4,68.2,1.5,102.3
				c0,0.5,0.8,0.5,0.8,0c-1.1-33.4-1.6-66.9-1.5-100.3c0.1-16.6,0.3-33.1,0.6-49.7c0.3-15.6-0.9-32.8,5-47.6
				C130.4,218.5,129.6,218.4,129.5,218.8L129.5,218.8z"/>
		</g>
	</g>
	<g>
		<g>
			<path class="st3" d="M140,428.1c51.3-14.5,101.7-31.5,151.3-51.1c0.4-0.2,0.3-0.9-0.2-0.7c-49.5,19.6-100,36.6-151.3,51.1
				C139.4,427.5,139.5,428.2,140,428.1L140,428.1z"/>
		</g>
	</g>
	<g>
		<g>
			<path class="st3" d="M139.1,339.4c0.6,23.6,1.2,47.2,1.9,70.9c0,0.5,0.8,0.5,0.8,0c-0.6-23.6-1.2-47.2-1.9-70.9
				C139.8,338.9,139,338.9,139.1,339.4L139.1,339.4z"/>
		</g>
	</g>
</g>
<g id="legs">
	<path class="st4" d="M373.2,463.9c3.8,3,7.7,6,11.5,9c3.7-3.2,7.6-7.1,11.5-11.8c7.9-9.5,12.9-19,16-26.5c-1.8,0.1-3.6,0.3-5.5,0.7
		c-14.1,2.8-23.4,12.3-28.2,18.2C376.8,457,375,460.5,373.2,463.9z"/>
	<path class="st4" d="M320,454.6c-0.6,4.8-1.2,9.7-1.8,14.5c4.6,1.5,10,2.9,16,3.8c12.3,1.9,22.9,1.3,31,0.1c-1-1.5-2.1-2.9-3.4-4.4
		c-9.6-10.6-22.6-13.8-30.1-14.8C327.7,454.1,323.9,454.3,320,454.6z"/>
	<path class="st5" d="M164,352c0,1.3-0.1,2.6-0.1,3.9c-0.7,6.3-1.1,11.7-1.4,15.6c-0.1,1.4-0.4,11,0.5,23.1c0.3,3.4,0.6,6.8,3.1,9.5
		c2.1,2.4,4.9,3.3,8.5,4c11.3,2.2,21.7,0,23.4-0.3c9.4-1.8,19.1-1.9,28.5-3.6c16.9-3,36.9-6.4,61.2-10.5c2.3,3.5,4.9,7.2,7.8,11.1
		c2.8,3.6,5.5,6.8,8.2,9.8c3.1,7.7,6.3,15.4,9.4,23.2c2.3,5.6,4.5,11.1,6.8,16.7c0.8,1,2,2.2,3.8,2.7c3.5,1.1,7.9-0.8,10.7-4.7
		c-0.7-5.5-1.3-11-2-16.4c9.5,6.2,19.2,12.7,28.9,19.5c4,2.8,8,5.6,11.9,8.4c1.2-1.1,3.1-3.1,4.3-6.2c0.6-1.6,0.9-3,1-4.1
		c-4.3-6.9-8-12.6-10.5-16.4c-18.4-28.5-26-38.6-29-42.4c-4.2-5.5-7.8-9.8-10-12.4c-0.6-2.8-1.4-6.7-2.5-11.4
		c-2.4-10.4-4.9-19.6-7.2-27.3c-1.1-3.7-2.6-8.6-4.5-14.3c-4.6-2.3-11.1-5.1-19-7.6c-6.3-1.9-29.6-8.7-58.7-4.6
		C199.2,322.6,173.8,343.2,164,352z"/>
	<g>
		<path class="st0" d="M164.1,354.4c-1.9,13.3-2.3,26.8-1.1,40.2c0.3,3.4,0.8,7,3.1,9.5c1.6,1.7,3.8,2.7,6,3.4
			c7.4,2.2,15.4,1.5,23.1,0.7c31-3.4,61.9-8.2,92.5-14.4"/>
	</g>
	<g>
		<path class="st0" d="M237.1,317.3c19.2,0.2,38.4,0.3,57.7,0.5c4.5,0,9.1,0.1,13.2,1.9s7.5,5.8,7.2,10.3"/>
	</g>
	<g>
		<g>
			<path class="st3" d="M287.6,392.9c7.3,14.8,19.9,25.7,33,35.3c16.5,12,33.6,23.3,50.8,34.4c0.4,0.3,0.8-0.4,0.4-0.6
				c-16.3-10.5-32.4-21.2-48.2-32.5c-14-10-27.6-21.2-35.4-36.9C288.1,392.1,287.4,392.5,287.6,392.9L287.6,392.9z"/>
		</g>
	</g>
	<g>
		<g>
			<path class="st3" d="M226.8,344c18,0,36,0.1,54,0.1c9.6,0,17.5,0.9,24.3,8.4c5.3,5.8,10.2,12.1,15.1,18.2
				c20.9,26.1,39.9,53.5,57.1,82.1c0.2,0.4,0.9,0,0.6-0.4c-17.9-29.7-37.8-58.2-59.6-85.2c-5.1-6.3-10-13.4-16.1-18.7
				c-5.1-4.3-11.2-5.1-17.7-5.2c-19.2-0.3-38.5-0.1-57.7-0.1C226.3,343.2,226.3,344,226.8,344L226.8,344z"/>
		</g>
	</g>
	<g>
		<path class="st0" d="M314.8,329.4c5.8,17.3,10.6,35,14.3,52.9"/>
	</g>
	<g>
		<path class="st0" d="M303.7,414.6c5.4,13.3,10.8,26.6,16.2,39.9c0.3,0.7,0.6,1.5,1.2,2c0.6,0.5,1.4,0.6,2.2,0.7
			c3.3,0.2,6.7-0.7,9.4-2.6"/>
	</g>
	<g>
		<path class="st0" d="M333.2,439.1c0.5,5.1,1,10.1,1.4,15.2"/>
	</g>
	<g>
		<path class="st0" d="M378.5,453.6c-0.4,3.9-2.3,7.7-5.3,10.3"/>
	</g>
</g>
<g id="details">
	<g id="table_bottom">
		<path class="st6" d="M305.3,265.3c3.7,2.7-1.5,214.7-1.5,214.7l214.5,50.7l71.1-145.4l7.6-159.2L305.3,265.3z"/>
		<line class="st7" x1="518.3" y1="530.7" x2="533" y2="343.6"/>
		<path class="st8" d="M310.2,419.6c-0.3,16.9-0.6,33.9-0.9,50.8l197.4,47.5l5.4-59.4L310.2,419.6z"/>
		<path class="st8" d="M316.1,345.1c-0.3,16.9-0.6,33.9-0.9,50.8l197.4,47.5L518,384L316.1,345.1z"/>
	</g>
	<g id="drawer_part_1_">
		<path class="st9" d="M229.5,334.3c2.5,0.5,158.1-76,158.1-76v42.6l-154.7,92l-3.4-56.3"/>
	</g>
	<g id="documents">
		<polygon class="st10" points="355.3,277 345.5,341.2 482.4,368 490.5,305.2 388.1,286.8 388.2,281.6 		"/>
		<polygon class="st10" points="345.4,280.7 335.9,345.5 467.8,372.7 475.7,309.2 376.9,290.6 377,285.3 		"/>
		<polygon class="st1" points="332.3,282.9 322.5,355 458.7,385.3 466.8,314.6 373.6,295.7 373.1,289.3 		"/>
		<polygon class="st10" points="316.9,292.4 307.1,364.6 443.3,394.8 451.4,324.2 349.5,303.5 349.6,297.6 		"/>
		<polygon class="st4" points="302.6,303.2 292.8,375.4 429,405.6 437.1,335 343.9,316 343.4,309.6 		"/>
		<polygon class="st10" points="280,319.1 270.2,391.2 406.3,421.5 414.4,350.8 312.5,330.1 312.6,324.2 		"/>
	</g>
	<g id="drawer_part">
		<path class="st9" d="M401.4,376.2c4.5-2.3,132-85.2,132-85.2l-0.4,48.8L392.3,443.4L401.4,376.2z"/>
	</g>
	<g id="table_top">
		<path class="st11" d="M533.8,299.1L209,254.2c-0.2-1.5-0.3-2.9-0.5-4.4c38.4-18.2,76.8-36.4,115.1-54.5
			c91.2,8.7,182.4,17.5,273.6,26.2c-0.1,1.5-0.3,3-0.4,4.5C575.9,250.4,554.8,274.8,533.8,299.1z"/>
		<polygon class="st12" points="533.8,294.6 209,249.7 323.7,190.7 596.9,221.5 		"/>
	</g>
	<g id="mouse">
		<path class="st10" d="M423.1,235.9c-0.2,0.9-0.5,2.5,0.4,3.7c3.4,4.1,20.9-2.4,20.7-7.3c-0.1-2.4-4.5-3.9-5.1-4.1
			C432.6,226.1,424.3,230.4,423.1,235.9z"/>
		<g>
			<g>
				<path class="st13" d="M435.7,229.6c2.1,0,4.2,0.2,6.3,0.4c0.5,0.1,0.5-0.7,0-0.8c-2.1-0.3-4.2-0.4-6.3-0.4
					C435.2,228.8,435.2,229.5,435.7,229.6L435.7,229.6z"/>
			</g>
		</g>
		<g>
			<g>
				<path class="st13" d="M432.9,228.6c2.6,0.7,4.9,1.9,6.9,3.6c0.4,0.3,0.9-0.2,0.5-0.5c-2.1-1.8-4.5-3.1-7.2-3.8
					C432.6,227.8,432.4,228.5,432.9,228.6L432.9,228.6z"/>
			</g>
		</g>
	</g>
	<g id="coffee">
		<polygon class="st4" points="490,228.5 454.7,228 460.9,214.9 486.4,214.9 		"/>
		<path class="st13" d="M478.6,222.4c-1.3,0.4-3.4,0.9-6,0.8c-2.3-0.1-4.1-0.7-5.3-1.2c-0.8-8.8-1.6-17.5-2.4-26.3l17.3,0.9
			L478.6,222.4z"/>
		<ellipse class="st10" cx="473.5" cy="196" rx="8.7" ry="2.2"/>
		<g>
			<g>
				<path class="st13" d="M471.5,173.7c-4.5,0.9-6.3,6-3,9.1c0.3,0.3,0.8,0.6,1.2,0.9c1.9,1.5,2.7,4,2,6.6c-0.3,1.1-1.4,1.9-1.6,3.1
					c-0.3,1.8,0.5,2.9,2,3.7c0.4,0.2,0.8-0.4,0.4-0.6c-1.2-0.6-0.5-4.7-0.2-5.7c0.2-0.5,0.6-1,0.8-1.6c0.3-1,0.4-1.8,0.1-2.8
					c-0.3-0.7-0.8-1.3-1.4-1.8c-0.4-0.4-1-0.7-1.4-1.1c-2.1-2.6-4.1-7.9,1.2-9C472.2,174.4,472,173.6,471.5,173.7L471.5,173.7z"/>
			</g>
		</g>
		<g>
			<g>
				<path class="st13" d="M479.3,182c-2,0.9-3.4,2.9-3,5.2c0.3,2.2,2.2,3.2,0.9,5.7c-0.6,1.2-1.4,1.6-1.4,3.1c0,0.5,0.8,0.5,0.8,0
					c-0.1-2.1,2.3-3.1,1.9-5.3c-0.2-1.1-1-2-1.3-3c-0.6-2.1,0.6-4.2,2.5-5C480.1,182.4,479.7,181.8,479.3,182L479.3,182z"/>
			</g>
		</g>
	</g>
	<g id="notebook">
		<path class="st1" d="M472.3,262.2c-0.1,0,36.9,5.7,36.9,5.7v2.6l23.8-16.7v-2.1l-32.2-4.6L472.3,262.2z"/>
		<g>
			<g>
				<path class="st13" d="M473,263.1c0,0.6,0.1,1.2,0.1,1.8c0,0.2,0.1,0.3,0.3,0.4c11.3,2.3,22.8,4.1,34.3,5.4
					c0.5,0.1,0.5-0.7,0-0.8c-6-0.7-12-1.5-18-2.4c-2.4-0.4-15.7-1.3-15.9-4.3C473.7,262.6,473,262.6,473,263.1L473,263.1z"/>
			</g>
		</g>
		<g>
			<g>
				<path class="st13" d="M475.7,264.4c6,0.8,12,1.6,17.9,2.6c0.5,0.1,0.7-0.6,0.2-0.7c-6-1-12.1-1.8-18.1-2.6
					C475.2,263.5,475.2,264.3,475.7,264.4L475.7,264.4z"/>
			</g>
		</g>
		<g>
			<g>
				<path class="st13" d="M496.1,267.3c4.1,0.6,8.1,1.1,12.2,1.6c0.5,0.1,0.5-0.7,0-0.8c-4-0.5-8-1-12-1.5
					C495.8,266.5,495.6,267.2,496.1,267.3L496.1,267.3z"/>
			</g>
		</g>
	</g>
	<g id="paper">
		<polygon class="st10" points="398.2,263.1 438.8,247.2 472.3,249.7 438.8,267.7 		"/>
		<path class="st10" d="M404.8,257.4c9.7,2,19.4,4,29.1,6l31.7-15.6l-24.8-2.5L404.8,257.4z"/>
		<g>
			<g>
				<path class="st1" d="M443.4,248c1.7,0.3,3.3,0.5,5,0.8c0.5,0.1,0.7-0.6,0.2-0.7c-1.7-0.3-3.3-0.5-5-0.8
					C443.2,247.2,443,247.9,443.4,248L443.4,248z"/>
			</g>
		</g>
		<g>
			<g>
				<path class="st1" d="M416.3,256.7c4.6,0.9,9.2,1.8,13.8,2.7c0.5,0.1,0.7-0.6,0.2-0.7c-4.6-0.9-9.2-1.8-13.8-2.7
					C416,255.9,415.8,256.6,416.3,256.7L416.3,256.7z"/>
			</g>
		</g>
		<g>
			<g>
				<path class="st1" d="M422.6,254.4c5.1,0.9,10.2,1.9,15.2,3.1c0.5,0.1,0.7-0.6,0.2-0.7c-5-1.2-10.1-2.2-15.2-3.1
					C422.4,253.6,422.2,254.3,422.6,254.4L422.6,254.4z"/>
			</g>
		</g>
		<g>
			<g>
				<path class="st1" d="M433.8,254c2.4,0.7,4.8,1.3,7.2,1.7c0.5,0.1,0.7-0.6,0.2-0.7c-2.4-0.4-4.8-0.9-7.2-1.7
					C433.6,253.1,433.4,253.9,433.8,254L433.8,254z"/>
			</g>
		</g>
		<g>
			<g>
				<path class="st1" d="M433.6,251.2c4.1,0.8,8.2,1.3,12.3,1.8c0.5,0.1,0.5-0.7,0-0.8c-4.1-0.4-8.1-1-12.1-1.8
					C433.4,250.4,433.2,251.1,433.6,251.2L433.6,251.2z"/>
			</g>
		</g>
	</g>
	<g id="laptop">
		<path class="st10" d="M341.7,206.4c-9.9,8-18.6,18.7-28.5,26.8l97.3,12l10.9-32L341.7,206.4z"/>
		<path class="st10" d="M348.9,209.1c-8,6.5-15,15.1-23,21.6l78.5,9.7l8.8-25.8L348.9,209.1z"/>
		<line class="st10" x1="357" y1="209.8" x2="334.7" y2="231.8"/>
		<line class="st10" x1="365" y1="210.4" x2="344.5" y2="233"/>
		<path class="st10" d="M330.5,226.6c0.4-0.4,76,7.7,76,7.7"/>
		<line class="st10" x1="373.6" y1="211.2" x2="358.8" y2="229.3"/>
		<line class="st10" x1="381.5" y1="211.9" x2="368.5" y2="230.3"/>
		<line class="st10" x1="389.8" y1="212.6" x2="375" y2="236.7"/>
		<line class="st10" x1="398.2" y1="213.2" x2="386.4" y2="238.2"/>
		<line class="st10" x1="405.1" y1="213.9" x2="396.1" y2="239.3"/>
		<path class="st10" d="M334.7,222.6c0.4-0.4,73.5,6.7,73.5,6.7"/>
		<path class="st10" d="M339.6,217.7c0.3-0.3,71,4.9,71,4.9"/>
		<path class="st10" d="M343.4,213.9c0.3-0.3,68.5,4.4,68.5,4.4"/>
		<polygon class="st14" points="421.3,213.2 341.7,206.4 341.7,154.3 421.3,157.6 		"/>
		<polygon class="st10" points="420,210.6 343,204.4 343,156.9 420,159.9 		"/>
		<g>
			<g>
				<path class="st5" d="M364.7,165c8.1,0.3,16.2,0.7,24.3,1c1.9,0.1,1.9-2.9,0-3c-8.1-0.3-16.2-0.7-24.3-1
					C362.7,161.9,362.7,164.9,364.7,165L364.7,165z"/>
			</g>
		</g>
		<g>
			<g>
				<path class="st5" d="M351.1,173.2c15.6,0.7,31.2,1.4,46.8,2c0.5,0,0.5-0.7,0-0.8c-15.6-0.7-31.2-1.4-46.8-2
					C350.6,172.4,350.6,173.2,351.1,173.2L351.1,173.2z"/>
			</g>
		</g>
		<g>
			<g>
				<path class="st5" d="M349.3,180.3c15.8,0.6,31.7,1.3,47.5,1.9c0.5,0,0.5-0.7,0-0.8c-15.8-0.6-31.7-1.3-47.5-1.9
					C348.8,179.5,348.8,180.3,349.3,180.3L349.3,180.3z"/>
			</g>
		</g>
		<g>
			<g>
				<path class="st5" d="M355.7,186.7c15.5,0.9,31.1,1.8,46.6,2.7c0.5,0,0.5-0.7,0-0.8c-15.5-0.9-31.1-1.8-46.6-2.7
					C355.2,185.9,355.2,186.7,355.7,186.7L355.7,186.7z"/>
			</g>
		</g>
		<g>
			<g>
				<path class="st5" d="M353.2,194.7c16,1.3,32,2.3,48,3.1c0.5,0,0.5-0.7,0-0.8c-16-0.8-32-1.8-48-3.1
					C352.7,193.9,352.7,194.6,353.2,194.7L353.2,194.7z"/>
			</g>
		</g>
		<g>
			<g>
				<path class="st5" d="M394.7,161.5c0,1.5,0,2.9,0,4.4c0,0.2,0.2,0.4,0.4,0.4c7.2,0.4,14.3,0.8,21.5,1.2c0.5,0,0.5-0.7,0-0.8
					c-4.1-0.2-8.3-0.5-12.4-0.7c-1.8-0.1-4,0.1-5.8-0.3c-3-0.7-2.9-1.2-2.9-4.2C395.5,161,394.7,161,394.7,161.5L394.7,161.5z"/>
			</g>
		</g>
		<g>
			<g>
				<path class="st5" d="M394.9,161.8c4.3,0,8.5,0,12.8,0.3c2.1,0.1,4.3,0.1,6.4,0.5c3,0.6,2,2,1.9,4.6c0,0.5,0.7,0.5,0.8,0
					c0.1-3.2,1.1-4.6-1.9-5.3c-6.3-1.3-13.6-0.9-20-0.8C394.5,161.1,394.5,161.8,394.9,161.8L394.9,161.8z"/>
			</g>
		</g>
	</g>
</g>
<g id="character">
	<g id="hand_left">
		<path class="st15" d="M323,307.3c-0.7,0.5-1.8,1.2-2.7,2.5c-0.8,1-1.9,2.4-2.1,4.3c-0.1,0.7-0.3,3.1,1.5,4.5
			c1.4,1.1,3.6,1.1,5.4,0c0.6,2.7,1.3,5.4,1.9,8c1.4,0.2,3,0.3,4.8,0.2c4.2-0.2,7.6-1.5,9.8-2.6c1.3-1,3.6-3,4.6-6.3
			c0.2-0.8,0.6-2,0.4-3.4c-0.3-3.2-2.6-5.2-3.5-6.1c-3-2.7-6.4-3.2-8.3-3.4C329.4,304.3,325,306.3,323,307.3z"/>
		<path class="st16" d="M263.7,149.5c3.8,2.1,9.1,5.4,15,10.2c6.1,4.9,15.2,13.7,30.9,38.2c6.8,10.6,15.2,25.1,23.3,43.3
			c0.5,6.8,0.9,13.7,1.2,20.8c0.6,14.4,0.7,28.2,0.3,41.4c-1.9,0.3-4.1,0.8-6.5,1.6c-2.2,0.7-4.2,1.5-5.9,2.3
			c-5.6-17-11.3-33.9-16.9-50.9c-10.5-10.8-21.9-21.9-34.3-33c-6.3-5.6-12.5-11-18.7-16.2C256,188,259.9,168.8,263.7,149.5z"/>
		<g>
			<path class="st0" d="M265.8,149.7c14.9,9.8,27.1,23.4,37.3,38.1c10.2,14.7,18.4,30.6,26.6,46.5"/>
		</g>
		<g>
			<path class="st0" d="M244.9,201.3c21.2,17.2,41.4,35.7,60.4,55.3"/>
		</g>
		<g>
			<path class="st0" d="M305.1,256.6c5.8,16.2,11.2,32.6,16.1,49.1"/>
		</g>
		<g>
			<path class="st0" d="M333,241.2c1.5,20.7,2,41.5,1.5,62.2"/>
		</g>
		<g>
			<path class="st0" d="M320.3,309.8c-1.9,1.7-2.6,4.7-1.6,7.1c0.3,0.8,0.8,1.5,1.5,2c0.7,0.4,1.7,0.5,2.4,0.1"/>
		</g>
		<g>
			<path class="st0" d="M323,307.3c4.1-3.2,10-3.4,15-1.7c2.5,0.8,5,2.2,6.7,4.2c1.7,2,2.6,4.9,1.9,7.4"/>
		</g>
		<g>
			<path class="st0" d="M323.4,310.4c2.3,5,1.2,11.2,3.7,16.1"/>
		</g>
		<g>
			<g>
				<path class="st13" d="M328.1,327.1c2.5-4.4,3-9.4,3.5-14.3c0-0.5-0.7-0.5-0.8,0c-0.4,4.8-1,9.6-3.4,13.9
					C327.2,327.1,327.8,327.5,328.1,327.1L328.1,327.1z"/>
			</g>
		</g>
		<g>
			<g>
				<path class="st13" d="M331.4,326.3c4.1-2.6,4.5-9.3,5.3-13.7c0.1-0.5-0.6-0.7-0.7-0.2c-0.7,4-1.2,10.8-4.9,13.2
					C330.6,325.9,331,326.6,331.4,326.3L331.4,326.3z"/>
			</g>
		</g>
		<g>
			<g>
				<path class="st13" d="M335.8,325.9c3.9-2.9,4.6-7.5,5.2-12c0.1-0.5-0.7-0.5-0.8,0c-0.5,4.2-1.2,8.7-4.8,11.4
					C335,325.5,335.4,326.2,335.8,325.9L335.8,325.9z"/>
			</g>
		</g>
		<g>
			<path class="st0" d="M341.7,324.2c2.1-2.1,3.8-4.6,5.1-7.2"/>
		</g>
	</g>
	<g id="torso">
		<path class="st16" d="M204.6,155.8c-5.6,2-12.7,5.6-26.9,12.7c-8.1,4-13.7,7.1-19.4,13c-2.7,2.8-4.7,5.5-5.9,7.3
			c-1.2,4.4-2.6,10.3-4,17.3c-4.2,21.9-4.5,38.9-4.5,42.9c-0.1,13,1.6,24.9,5,48.8c2.6,18.2,4.4,25.8,6.3,32.1
			c3.2,10.8,7,19.5,9.9,25.4c1.9,0.2,4.3,0.3,7.3,0.3c0.5,0,7.3-0.1,14.4-1.7c13.3-2.9,24.5-10.1,27-11.7
			c11.6-7.6,19.1-16.6,23.5-23c-0.3-2-0.6-4.7-0.9-7.9c0,0-0.6-7.5-0.2-15c0.6-11.8,6.3-27.4,14.7-51.3c5.8-16.6,7.1-20.7,8.2-24.3
			c3.6-11.8,5.1-18.7,7.7-30.6c3.1-14.2,3.4-18,3-22.2c-0.8-8.1-3.8-14.4-6.1-18.5c-3.8-0.7-8.5-1.3-13.8-1.5
			c-1.9-0.1-7.9-0.3-14.7,0.3C222.4,149.4,212.6,152.9,204.6,155.8z"/>
		<g>
			<path class="st0" d="M162.3,178.1c15-10,30.9-18.8,48.1-24.3s35.6-7.6,53.4-4.3"/>
		</g>
		<g>
			<path class="st0" d="M269.7,165.1c0.6,6.5-0.5,13-1.7,19.3c-3.2,16.8-7.6,33.3-13.1,49.5c-9.1,26.3-21.5,52.8-19.1,80.6"/>
		</g>
		<g>
			<path class="st0" d="M152.3,188.9c-14.5,53.9-10.4,112.7,11.3,164.1"/>
		</g>
		<g>
			<path class="st0" d="M165.1,355.3c28.4,2.8,57.8-12.9,71.4-38"/>
		</g>
	</g>
	<g id="drawer_front">
		<path class="st11" d="M222.4,329.4c-1.5,0.5-3,1.1-4.4,1.6c1.2,23,2.3,46,3.5,69c58.2,16.3,116.4,32.6,174.6,49
			c1.4-0.6,2.9-1.2,4.3-1.8c1.5-26.6,3-53.3,4.5-79.9L222.4,329.4z"/>
		<polygon class="st12" points="218.1,331.2 217.2,401.8 396.1,449 400.6,369.1 		"/>
	</g>
	<g id="hand_right">
		<path class="st16" d="M160.5,179.4c-1.4,1.2-3.4,3.1-5.8,5.4c-6,5.8-9,8.8-10.9,11.7c-3.5,5.4-4.4,10.6-5,14
			c-0.4,2.6-0.7,5.5,0.3,17.2c0.8,8.7,1.2,14,2.5,21.6c0.9,5.2,2.3,12.4,4.5,20.9c1.6,5.9,5.4,19.2,12.8,35.3
			c2.9,6.5,7,14.5,12.3,23.3c4.1,0.5,10.2,1.2,17.5,1.8c14.1,1.1,23.8,0.9,44.7,0.7c7.4-0.1,20-0.2,36.4-0.3c0.2-1.9,0.4-4,0.5-6.2
			c0.1-3,0.1-5.9,0-8.5c-8.2-2.4-16.6-5.1-25.2-8.1c-15.8-5.4-30.6-11.1-44.4-17c-2.3-14.9-4.2-30.7-5.7-47.4
			c-1.6-17.6-2.4-34.4-2.8-50.2c-1.1-4-2.9-6.6-4.3-8.2C178.6,175.1,161.4,179.2,160.5,179.4z"/>
		<path class="st15" d="M270,316.8c1.9-4.1,3.8-8.1,5.7-12.2c0.8-0.9,2.1-2.1,4-3c1.7-0.7,3.2-0.8,8.4-0.3c5.9,0.6,8.8,0.9,10,2.2
			c1.4,1.5,1.7,3.6,2.1,6.7c0.3,2.5,0.2,4.5,0,6c-2-0.2-4.6-0.1-7.4,0.9c-2.1,0.7-4,1.3-5.5,3.1c-1.8,2-1.2,3.4-3.2,5.8
			c-1.4,1.8-3,2.7-3.9,3.2c-4.2,2.4-8.6,2.1-10.3,1.8C269.9,326.3,269.9,321.6,270,316.8z"/>
		<g>
			<path class="st0" d="M154.8,184.9c-6.4,5.9-13.1,12.3-15.2,20.7c-0.8,3.3-0.9,6.7-0.8,10.1c0.4,39.7,11.8,79.3,32.7,113"/>
		</g>
		<g>
			<g>
				<path class="st3" d="M191.7,200.2c1,30.5,4.1,60.8,9.2,90.9c0.1,0.5,0.8,0.3,0.7-0.2c-5.1-30-8.1-60.3-9.2-90.7
					C192.5,199.7,191.7,199.7,191.7,200.2L191.7,200.2z"/>
			</g>
		</g>
		<g>
			<g>
				<path class="st3" d="M201,291.7c22.6,9.5,45.6,18,68.9,25.4c0.5,0.1,0.7-0.6,0.2-0.7c-23.3-7.4-46.3-15.9-68.9-25.4
					C200.7,290.8,200.5,291.5,201,291.7L201,291.7z"/>
			</g>
		</g>
		<g>
			<path class="st0" d="M171.3,328.9c4.9,1.4,10,1.6,15,1.7c27.5,0.8,55.1,1,82.6,0.6"/>
		</g>
		<g>
			<g>
				<path class="st13" d="M269.7,317.1c0.4,4.7,0.2,9.4-0.5,14c-0.1,0.5,0.6,0.7,0.7,0.2c0.8-4.7,1-9.5,0.6-14.2
					C270.4,316.6,269.7,316.6,269.7,317.1L269.7,317.1z"/>
			</g>
		</g>
		<g>
			<path class="st0" d="M270.2,316.5c1.8-4,3.6-7.9,5.4-11.9c0.2-0.5,0.5-1,0.8-1.4c1.1-1.2,3.1-1.2,4.5-2.1"/>
		</g>
		<g>
			<path class="st0" d="M269.8,331.1c6.6,1.3,13.8-2.5,16.4-8.7c0.7-1.6,1.2-3.5,2.6-4.6c1.1-0.8,2.4-0.9,3.7-1
				c2.5-0.2,5-0.4,7.5-0.6"/>
		</g>
		<g>
			<g>
				<path class="st13" d="M280.2,304.5c4.8-4.9,11.9-2.2,17.7-0.7c0.5,0.1,0.7-0.6,0.2-0.7c-6-1.6-13.3-4.3-18.4,0.9
					C279.4,304.4,279.9,304.9,280.2,304.5L280.2,304.5z"/>
			</g>
		</g>
		<g>
			<g>
				<path class="st13" d="M283.3,307.4c4.8-2.2,10.1-2.2,15-0.1c0.4,0.2,0.8-0.5,0.4-0.6c-5.1-2.2-10.6-2.2-15.7,0.1
					C282.5,306.9,282.9,307.6,283.3,307.4L283.3,307.4z"/>
			</g>
		</g>
		<g>
			<g>
				<path class="st13" d="M286.7,312.2c4.5-1,8.9-1,13.3,0.2c0.5,0.1,0.7-0.6,0.2-0.7c-4.5-1.2-9.1-1.3-13.7-0.2
					C286,311.6,286.2,312.3,286.7,312.2L286.7,312.2z"/>
			</g>
		</g>
	</g>
	<g id="head">
		<path class="st5" d="M241,133.3c1.1,11.2-11.2,24.9-24.4,24.6c-7.2-0.2-16.2-4.5-18.2-11.9c-1.2-4.4,0.5-8.3,2.6-12.8
			c0.3-0.7,6.9-14.9,14-14.1c2.9,0.3,2.9,2.8,6.8,3.9c5.3,1.5,8.1-2.2,12.1-1C238.2,123.2,240.6,129.2,241,133.3z"/>
		<path class="st4" d="M213,139.1c0.1-0.5,1.1-4.3,4.8-6c2.6-1.2,5.1-0.7,5.8-0.5c-2.3-1.8-5.5-1.9-7.9-0.3
			C213.6,133.8,212.5,136.5,213,139.1z"/>
		<path class="st15" d="M233.9,143.6c1.1,1.6,1.2,3.2,1.3,4.7c0.2,3.1-0.6,5.5-1.1,6.8c-0.7,1.8-1.5,4.1-3.7,6.2
			c-2.3,2.1-4.7,2.7-6.2,3.1c-2.5,0.6-4.6,0.5-5.9,0.4c-0.3,0.5-0.7,1-1,1.5c0.1,0,1.2,0.1,1.8,1c0.7,1.1,0.2,2.3,0.1,2.4
			c-0.4,0.7-1,1-1.5,1.3c-2.1,1-4.3,0.4-4.8,0.3c-1.6-0.5-2.5-1.3-3-1.7c-1.7-1.6-2.4-3.4-2.6-4.4c1-1.7,2-3.4,3-5.1
			c-0.7-1.4-1.5-2.8-2.2-4.2c-0.6-1.4-0.9-3-0.7-4.8c1.1-7.8,13.7-13.1,21.4-10.8C229.8,140.5,232.3,141.3,233.9,143.6z"/>
		<ellipse class="st13" cx="223.6" cy="152.8" rx="0.9" ry="1.2"/>
		<ellipse class="st13" cx="230.9" cy="152.3" rx="0.9" ry="1.2"/>
		<g>
			<g>
				<path class="st13" d="M221.2,149c1-0.7,2.1-1.1,3.4-0.8c0.5,0.1,0.7-0.6,0.2-0.7c-1.4-0.3-2.8,0-3.9,0.9
					C220.5,148.7,220.9,149.3,221.2,149L221.2,149z"/>
			</g>
		</g>
		<g>
			<g>
				<path class="st13" d="M230.2,147.2c1.1-0.3,2.1-0.1,3,0.6c0.4,0.3,0.8-0.4,0.4-0.6c-1.1-0.8-2.4-1-3.6-0.7
					C229.5,146.6,229.7,147.4,230.2,147.2L230.2,147.2z"/>
			</g>
		</g>
		<g>
			<path class="st0" d="M207.9,155.5c1.2,4.8,5.5,8.5,10.4,9.3c4.9,0.8,10-1.3,13.2-5.1c3.2-3.8,4.4-9,3.4-13.9"/>
		</g>
		<g>
			<g>
				<path class="st13" d="M218,164.8c-0.7,0.9-1.5,1.9-2.2,2.8c-0.3,0.4,0.2,0.9,0.5,0.5c0.7-0.9,1.5-1.9,2.2-2.8
					C218.9,164.9,218.3,164.4,218,164.8L218,164.8z"/>
			</g>
		</g>
		<g>
			<path class="st0" d="M207.6,165.7c0.5,1.3,1.2,2.5,2.1,3.5c1.8,2,4.9,2.8,7.5,2c0.7-0.2,1.4-0.6,1.9-1.1c0.5-0.6,0.7-1.4,0.5-2.1
				c-0.2-0.7-0.8-1.1-1.3-1.6"/>
		</g>
		<g>
			<g>
				<path class="st13" d="M227.2,149.8c0.2,3.1,0.1,6.7-1.7,9.4c-0.3,0.4,0.4,0.8,0.6,0.4c1.9-2.7,2.1-6.5,1.8-9.7
					C227.9,149.4,227.2,149.4,227.2,149.8L227.2,149.8z"/>
			</g>
		</g>
		<g>
			<path class="st0" d="M207.3,151c1.2,0.8,2.8,0.7,4.1,0.2c2.4-0.8,4.3-2.6,5.9-4.5c1.3-1.5,2.6-3.2,4.3-4.3
				c1.3-0.8,2.8-1.1,4.3-1.3c1.9-0.2,3.9-0.2,5.6,0.6c1.7,0.8,3.2,2.5,3.3,4.4"/>
		</g>
		<g>
			<path class="st0" d="M207.3,150.8c0-4.9,2.1-9.8,5.9-12.9c3.8-3.1,9.2-4.2,13.7-2.5c4.6,1.7,8,6.3,8,11.2"/>
		</g>
		<path class="st5" d="M206.8,150.9c0.6,0.3,1.6,0.7,2.8,0.7c0.8,0,2.4-0.2,5.4-2.8c3.4-3,3-4.3,5.7-5.9c0.4-0.2,2.2-1.3,4.8-1.7
			c1.3-0.2,3-0.4,4.8,0.3c3.4,1.4,4.4,5.4,4.6,6c4.8-4.4,4.2-7.2,4.1-7.8c-1.2-4.7-11.5-5.5-16.6-5.1c-2.4,0.2-6.2,0.5-9.6,3.3
			c-2.3,1.8-3.4,3.9-3.9,4.8C207,146.1,206.8,149.2,206.8,150.9z"/>
	</g>
</g>
</svg>
